<?xml version="1.0" standalone="no"?>
<!DOCTYPE svg PUBLIC "-//W3C//DTD SVG 20010904//EN"
 "http://www.w3.org/TR/2001/REC-SVG-20010904/DTD/svg10.dtd">
<svg version="1.0" xmlns="http://www.w3.org/2000/svg"
 width="2570.000000pt" height="2570.000000pt" viewBox="0 0 2570.000000 2570.000000"
 preserveAspectRatio="xMidYMid meet">
<metadata>
Created by potrace 1.11, written by Peter Selinger 2001-2013
</metadata>
<g transform="translate(0.000000,2570.000000) scale(0.100000,-0.100000)"
fill="#000000" stroke="none">
<path d="M17348 25695 c-2 -2 -34 -6 -73 -9 -425 -36 -873 -169 -1155 -343
-184 -114 -327 -234 -500 -420 -244 -262 -506 -661 -806 -1228 -109 -206 -288
-585 -350 -743 -15 -37 -32 -80 -40 -97 -99 -223 -260 -745 -319 -1030 -9 -44
-18 -87 -20 -95 -15 -73 -43 -240 -51 -300 -2 -19 -6 -50 -9 -69 -3 -18 -8
-59 -10 -90 -3 -31 -7 -74 -10 -96 -12 -102 -18 -249 -17 -460 0 -240 5 -338
27 -567 14 -137 16 -154 50 -383 8 -54 43 -240 55 -290 5 -22 11 -54 14 -71 3
-17 19 -84 36 -150 17 -65 33 -126 35 -135 2 -9 13 -49 25 -90 128 -439 254
-765 457 -1179 58 -118 112 -223 120 -232 9 -10 13 -18 10 -18 -4 0 7 -23 23
-50 17 -28 30 -53 30 -55 0 -2 23 -40 50 -84 28 -44 50 -83 50 -86 0 -10 211
-334 297 -457 114 -163 336 -447 413 -528 8 -9 29 -33 47 -54 112 -134 366
-391 629 -636 104 -98 423 -368 614 -521 93 -74 486 -375 551 -422 31 -22 277
-203 306 -225 54 -41 496 -358 511 -367 9 -5 19 -12 22 -15 3 -3 58 -44 123
-90 202 -145 418 -307 527 -397 98 -80 535 -510 608 -598 44 -53 317 -416 368
-490 40 -58 448 -619 461 -635 52 -61 215 -297 277 -400 191 -320 363 -730
415 -990 6 -30 14 -66 16 -80 15 -71 37 -271 50 -440 3 -36 7 -87 10 -115 2
-27 7 -81 10 -120 4 -38 8 -81 10 -95 31 -197 26 -395 -12 -500 -23 -62 -65
-122 -113 -160 -60 -48 -207 -108 -335 -138 -16 -4 -82 -7 -145 -6 -150 1
-241 26 -470 131 -148 68 -378 190 -458 244 -24 16 -45 29 -47 29 -2 0 -73 46
-157 101 -134 90 -174 117 -225 159 -7 6 -27 20 -45 33 -38 25 -103 74 -133
99 -11 9 -78 63 -150 119 -71 57 -132 105 -135 109 -3 3 -32 28 -65 55 -33 28
-125 106 -205 175 -80 69 -156 134 -170 146 -65 56 -137 118 -151 133 -9 9
-39 34 -65 56 -84 70 -663 579 -764 672 -19 17 -44 40 -56 50 -21 18 -162 145
-214 193 -15 14 -69 63 -120 110 -52 47 -121 110 -154 141 -34 31 -81 73 -105
95 -25 21 -54 48 -66 59 -11 11 -63 58 -114 105 -51 47 -105 96 -120 110 -21
20 -161 147 -225 205 -6 6 -61 55 -121 110 -61 55 -125 114 -144 130 -19 17
-44 39 -55 50 -12 11 -84 76 -161 145 -77 68 -142 127 -145 130 -3 3 -59 52
-125 110 -66 57 -122 107 -125 110 -3 3 -36 32 -75 65 -38 33 -72 63 -75 66
-5 5 -336 287 -385 327 -11 10 -83 69 -160 133 -157 130 -436 352 -565 450
-47 35 -87 67 -90 70 -3 4 -21 17 -40 30 -19 14 -44 32 -55 41 -36 30 -436
321 -586 425 -289 201 -619 419 -913 603 -132 83 -612 367 -696 413 -30 16
-68 38 -85 47 -43 25 -114 64 -360 197 -263 142 -881 443 -1145 558 -47 20
-100 43 -118 51 -17 8 -47 20 -65 28 -17 8 -63 27 -102 44 -261 112 -668 268
-985 377 -205 70 -229 78 -340 113 -319 101 -579 174 -855 241 -251 62 -277
68 -435 101 -80 16 -165 34 -190 40 -50 11 -240 45 -310 56 -74 11 -172 28
-225 38 -12 2 -48 8 -80 12 -33 4 -62 8 -65 9 -3 1 -34 5 -70 10 -36 5 -67 9
-70 10 -3 1 -36 5 -75 9 -38 4 -83 10 -98 12 -16 3 -52 7 -80 9 -29 3 -68 7
-87 9 -19 3 -64 7 -100 11 -36 3 -76 8 -90 10 -14 2 -54 6 -90 10 -36 3 -81 8
-100 10 -19 2 -78 9 -130 15 -118 13 -179 20 -206 25 -12 2 -48 6 -80 10 -33
3 -81 10 -109 16 -27 5 -69 11 -92 14 -23 2 -106 16 -185 29 -79 13 -159 27
-178 30 -32 6 -173 28 -260 41 -19 3 -62 10 -95 15 -153 23 -294 33 -475 34
-177 0 -294 -8 -425 -30 -204 -35 -268 -51 -625 -154 -36 -10 -157 -44 -270
-74 -113 -30 -277 -78 -365 -106 -88 -28 -266 -78 -395 -111 -129 -33 -242
-62 -250 -64 -8 -2 -51 -14 -95 -26 -276 -73 -393 -207 -400 -461 -4 -110 10
-184 56 -303 48 -123 84 -186 254 -445 193 -294 231 -360 291 -508 37 -90 108
-351 120 -438 3 -27 8 -52 10 -55 1 -3 6 -31 9 -63 4 -31 8 -67 11 -79 7 -33
18 -241 17 -332 0 -83 -11 -273 -18 -316 -2 -13 -11 -73 -20 -134 -23 -154
-25 -168 -30 -185 -2 -8 -7 -31 -10 -50 -3 -19 -23 -123 -45 -230 -22 -107
-42 -211 -45 -230 -3 -19 -8 -42 -10 -50 -4 -14 -10 -48 -19 -107 -3 -16 -8
-48 -12 -73 -9 -57 -10 -61 -19 -145 -4 -38 -9 -83 -11 -100 -2 -16 -6 -102
-8 -190 -4 -154 4 -244 33 -351 5 -22 12 -50 15 -64 3 -14 14 -59 26 -100 12
-41 23 -82 25 -90 7 -32 68 -196 100 -270 102 -230 272 -469 688 -965 136
-162 308 -405 406 -573 87 -149 195 -385 278 -607 9 -22 19 -49 24 -60 16 -39
98 -282 164 -490 153 -478 171 -530 244 -690 49 -106 105 -286 125 -397 25
-143 235 -864 286 -983 10 -24 90 -246 93 -260 18 -71 181 -454 277 -650 98
-198 127 -252 233 -430 39 -66 76 -129 82 -140 43 -78 376 -602 491 -771 205
-303 238 -349 246 -352 4 -2 8 -8 8 -13 0 -5 26 -45 58 -88 31 -44 75 -106 97
-137 45 -64 240 -326 270 -363 42 -51 316 -368 352 -407 92 -100 225 -243 270
-290 26 -28 109 -116 183 -195 280 -299 567 -573 755 -722 11 -8 48 -38 82
-66 34 -28 66 -51 72 -51 5 0 11 -3 13 -8 5 -11 151 -119 273 -200 116 -78
381 -213 553 -281 136 -54 196 -85 355 -183 591 -362 671 -403 1002 -518 124
-43 437 -138 560 -170 39 -10 113 -31 165 -45 148 -42 188 -52 460 -120 387
-96 465 -115 495 -121 71 -13 341 -86 440 -119 61 -20 261 -97 445 -170 310
-124 492 -191 544 -201 12 -2 44 -8 71 -14 53 -11 112 -15 350 -26 323 -16
670 -6 795 22 14 4 39 8 55 11 17 3 66 16 110 30 113 35 163 57 410 177 155
75 256 122 310 142 259 95 584 187 775 219 19 3 71 12 115 19 44 8 102 17 128
21 27 4 56 8 65 10 10 1 46 6 82 10 36 3 76 8 90 10 14 2 59 6 100 10 41 3 91
7 110 10 97 13 477 30 865 40 483 12 616 16 705 20 52 3 142 7 200 10 151 7
307 19 410 30 19 3 66 7 105 11 38 3 72 7 75 9 3 2 34 6 70 10 36 4 74 9 85
11 10 2 37 6 60 9 92 14 298 59 409 91 247 71 419 160 628 323 158 124 269
205 443 322 77 51 149 101 160 110 235 196 305 247 460 333 11 6 46 28 78 49
31 20 60 37 62 37 3 0 28 16 55 35 27 19 52 35 55 35 3 0 11 5 18 10 7 6 71
49 142 97 119 79 229 157 280 199 11 9 97 73 190 143 174 130 306 224 455 321
321 211 656 434 660 440 3 4 16 13 29 20 14 7 30 17 35 21 6 5 70 54 143 108
219 164 321 251 477 406 100 99 226 237 240 263 5 10 16 23 23 31 64 63 239
324 355 526 75 131 168 316 168 334 0 5 3 11 8 13 17 7 169 398 226 580 62
200 135 494 161 648 36 218 40 245 51 335 3 33 8 68 10 78 2 10 6 53 10 95 3
42 8 93 10 112 23 264 23 865 -1 1115 -2 22 -6 72 -9 110 -3 39 -8 88 -10 110
-13 109 -17 144 -21 190 -3 28 -7 61 -10 75 -2 14 -7 45 -10 70 -25 192 -94
561 -146 785 -28 120 -82 327 -126 485 -8 30 -16 60 -17 65 -2 6 -6 17 -9 25
-3 8 -11 35 -17 59 -15 59 -167 519 -184 556 -8 17 -17 41 -21 55 -3 14 -10
34 -15 45 -5 11 -35 85 -66 165 -58 150 -119 298 -159 385 -12 28 -35 77 -50
110 -113 254 -254 532 -416 822 -64 115 -145 249 -151 251 -5 2 -8 8 -8 13 0
22 -272 442 -464 714 -139 197 -397 540 -498 660 -9 11 -53 65 -99 120 -45 55
-96 116 -113 136 -17 19 -44 51 -60 70 -28 33 -151 173 -171 195 -5 6 -46 51
-90 100 -158 175 -224 243 -510 529 -256 256 -395 389 -595 570 -30 28 -57 52
-60 55 -12 13 -260 229 -315 275 -33 28 -62 53 -65 56 -3 3 -66 56 -140 118
-74 61 -142 117 -150 124 -86 77 -456 356 -750 566 -102 73 -198 143 -215 156
-16 14 -35 25 -42 25 -6 0 -13 3 -15 8 -1 4 -106 81 -233 171 -740 527 -1194
910 -1526 1286 -24 27 -50 56 -58 64 -11 12 -145 179 -174 216 -63 83 -217
309 -217 319 0 2 -17 33 -38 67 -55 92 -162 305 -162 323 0 9 -4 16 -9 16 -5
0 -11 10 -14 23 -3 12 -26 75 -50 140 -43 111 -109 339 -122 417 -3 19 -10 53
-15 75 -5 22 -11 60 -15 85 -3 25 -8 56 -10 70 -4 23 -9 57 -20 148 -8 72 -17
173 -30 377 -3 39 -7 135 -10 215 -14 371 -25 608 -30 650 -2 19 -7 80 -11
135 -3 55 -8 116 -10 135 -5 48 -6 320 0 345 2 11 7 40 11 65 19 116 66 232
129 315 112 148 330 266 551 301 22 3 43 8 46 9 9 6 218 19 289 19 69 -1 229
-12 270 -18 14 -3 47 -7 74 -11 114 -14 321 -64 464 -111 385 -128 696 -315
868 -522 56 -68 112 -172 204 -387 55 -126 141 -303 205 -420 48 -87 176 -298
185 -305 4 -3 13 -16 20 -29 19 -37 144 -204 229 -305 97 -117 264 -284 366
-366 44 -35 82 -67 85 -70 13 -14 70 -48 110 -67 55 -25 88 -35 208 -63 51
-12 110 -29 130 -38 61 -28 144 -88 193 -139 52 -54 149 -185 149 -200 0 -6 6
-16 14 -22 18 -15 83 -136 121 -226 93 -219 181 -343 389 -550 118 -117 310
-298 376 -355 14 -11 39 -33 55 -49 68 -62 242 -193 465 -350 113 -79 155
-102 300 -160 85 -35 173 -71 196 -81 80 -37 146 -60 222 -80 115 -29 135 -31
282 -35 117 -4 143 -2 194 16 77 26 101 45 127 97 21 43 23 114 4 167 -47 128
-125 228 -263 332 -42 32 -82 63 -88 68 -6 6 -35 30 -64 54 -122 104 -258 312
-337 516 -58 151 -118 373 -138 510 -3 23 -7 52 -10 65 -9 48 -25 177 -31 250
-3 41 -7 91 -9 110 -2 19 -7 145 -11 280 -3 135 -8 248 -10 252 -2 3 0 18 6
32 5 15 12 37 14 49 3 12 21 84 41 161 19 76 38 152 40 170 3 17 8 38 10 46 4
16 14 61 19 95 2 11 11 63 20 115 23 131 24 138 42 295 20 177 19 401 -1 543
-42 293 -223 581 -535 852 -41 36 -81 71 -88 78 -7 6 -44 33 -80 59 -37 26
-69 50 -72 54 -14 18 -388 256 -645 410 -428 256 -636 398 -925 632 -8 7 -44
35 -80 62 -36 28 -67 52 -70 55 -3 3 -34 28 -70 55 -35 28 -71 55 -80 62 -8 7
-53 42 -100 78 -47 36 -89 69 -95 73 -102 81 -413 302 -424 302 -5 0 -11 4
-13 8 -1 5 -37 30 -78 56 -41 27 -91 59 -110 71 -325 211 -734 394 -1098 491
-62 16 -357 75 -402 79 -30 4 -75 8 -100 11 -25 3 -61 7 -80 10 -38 6 -546 14
-552 9z"/>
</g>
</svg>
