<svg width="194px" height="523px" viewBox="0 0 194 523" version="1.1" xmlns="http://www.w3.org/2000/svg" xmlns:xlink="http://www.w3.org/1999/xlink">
    <g id="site-design" stroke="none" stroke-width="1" fill="none" fill-rule="evenodd">
        <g id="about-page" transform="translate(-241.000000, -1562.000000)">
            <g id="Group-11-Copy-5" transform="translate(241.000000, 1562.000000)">
                <path d="M92.7162755,134.360792 C100.418425,135.035859 125.635125,135.429159 158.992753,117.263136 C161.310626,116.679894 164.382492,116.152839 159.824077,126.400446 C158.562801,133.112546 153.969082,153.945296 155.518674,173.723095 C155.427052,185.060455 154.073733,203.109495 141.695489,216.555078 C140.20894,226.275211 175.48601,483.766068 194,519.935428 L181.219123,520 L133.873979,300.672677 L120.961972,199.883008 C120.961972,199.883008 110.366159,175.276589 102.619879,158.789009 C99.6673748,152.504593 95.7221563,146.771551 91.2473782,141.456967 C90.2685336,140.294677 89.8730451,139.331552 89.8730451,139.331552 C89.8730451,139.331552 89.0114602,138.972215 89.0001125,137.641787 C88.9837213,135.684511 90.7615283,134.189299 92.7162755,134.360792" id="Fill-1" fill="#FABDC3"></path>
                <path d="M92.7162755,134.360792 C100.418425,135.035859 125.635125,135.429159 158.992753,117.263136 C161.310626,116.679894 164.382492,116.152839 159.824077,126.400446 C158.562801,133.112546 153.969082,153.945296 155.518674,173.723095 C155.427052,185.060455 154.073733,203.109495 141.695489,216.555078 C140.20894,226.275211 175.48601,483.766068 194,519.935428 L181.219123,520 L133.873979,300.672677 L120.961972,199.883008 C120.961972,199.883008 110.366159,175.276589 102.619879,158.789009 C99.6673748,152.504593 95.7221563,146.771551 91.2473782,141.456967 C90.2685336,140.294677 89.8730451,139.331552 89.8730451,139.331552 C89.8730451,139.331552 89.0114602,138.972215 89.0001125,137.641787 C88.9837213,135.684511 90.7615283,134.189299 92.7162755,134.360792 Z" id="Stroke-3"></path>
                <path d="M90.4664701,253.160073 C88.0009618,249.355326 127.206784,177.092456 30.1473975,138 C30.1473975,138 40.5221856,222.14015 80.336511,256.949273 C80.336511,256.949273 135.086668,395.944159 129.441322,410.678675 C129.441322,410.678675 127.899277,421.173137 105.218785,380.068009 L76.1328426,323.325816 C76.1328426,323.325816 76.5141544,257.421137 0.0657614151,266.858 C0.0657614151,266.858 -1.13780639,272.830885 6.7529958,278.726036 C6.7529958,278.726036 9.43435674,313.788108 60.6745973,327.474271 C60.6745973,327.474271 160.603481,490.311535 161.947311,523 L172,510.110502 L146.504604,425.596811 C146.504604,425.596811 116.272627,292.983646 90.4664701,253.160073" id="Fill-5" fill="#FABDC3"></path>
                <path d="M90.4664701,253.160073 C88.0009618,249.355326 127.206784,177.092456 30.1473975,138 C30.1473975,138 40.5221856,222.14015 80.336511,256.949273 C80.336511,256.949273 135.086668,395.944159 129.441322,410.678675 C129.441322,410.678675 127.899277,421.173137 105.218785,380.068009 L76.1328426,323.325816 C76.1328426,323.325816 76.5141544,257.421137 0.0657614151,266.858 C0.0657614151,266.858 -1.13780639,272.830885 6.7529958,278.726036 C6.7529958,278.726036 9.43435674,313.788108 60.6745973,327.474271 C60.6745973,327.474271 160.603481,490.311535 161.947311,523 L172,510.110502 L146.504604,425.596811 C146.504604,425.596811 116.272627,292.983646 90.4664701,253.160073 Z" id="Stroke-7"></path>
                <path d="M82.1362062,114.911728 C76.9372601,113.768228 53.9452859,108.27424 74.2856762,88.6572803 C74.2856762,88.6572803 110.482831,58.9024351 152.544445,71.8618173 C153.989736,72.7248831 171.558415,80.078104 148.38353,97.21804 C146.769558,98.6072329 102.293685,117.92911 82.1362062,114.911728 M91.531645,128.493087 C91.6547019,128.468392 91.7698062,128.452905 91.8949559,128.443697 C98.0913329,127.988725 170.517035,125.420036 180.904045,76.2474644 C180.904045,76.2474644 185.376369,55.4397077 133.25548,54.392895 C131.673738,54.3610846 130.396289,53.0836466 130.37578,51.5010801 C130.24477,41.2652527 129.754217,9.85250066 111.037425,0.324454201 C108.331009,-1.0534376 105.527906,2.25442355 107.3679,4.67117545 C107.406408,4.72140237 107.445753,4.77204784 107.486353,4.82311188 C107.631594,5.00518446 107.761766,5.19813954 107.861802,5.40909259 C109.473681,8.80150239 123.54612,38.8627317 123.008269,53.0396981 C122.97311,53.971826 122.46414,54.8202423 121.685198,55.333394 C119.219036,56.9569792 116.646142,58.5123394 113.509446,56.8619666 C112.666045,56.4182955 112.125683,55.558578 112.027321,54.6105449 C111.237497,47.0262802 108.381237,12.8623488 89.3279213,1.16742932 C88.7796064,0.830908964 88.1283255,0.710364359 87.4891828,0.782774834 C84.886152,1.07785798 80.7423981,1.1063199 84.6676632,9.26568283 C84.7149605,9.36404388 84.7668621,9.45696368 84.8246235,9.54946492 C89.0437184,16.3531196 107.314325,60.2104278 99.4671429,64.8727415 C96.3488635,66.8663316 92.2335718,72.4348227 87.1346617,62.2035994 C86.9777013,61.8884255 86.8860364,61.5477195 86.8504588,61.1973868 C86.3712064,56.4689409 79.0857337,23.5970969 67.1734877,14.6278249 C65.4234841,13.3097869 62.9062583,14.3469728 62.5308091,16.5054746 C61.9937953,19.5927559 62.9213265,25.5220436 69.0448739,36.8419354 C69.0771031,36.9022077 69.1093323,36.9570387 69.1457471,37.0152182 C71.3770958,40.5587274 87.0626692,68.4991251 80.1375775,70.9765678 C80.1375775,70.9765678 39.3379256,81.5141753 43.2665391,109.740448 C47.0574461,136.975995 88.6197161,129.080741 91.531645,128.493087" id="Fill-9" fill="#FABDC3"></path>
                <path d="M82.1362062,114.911728 C76.9372601,113.768228 53.9452859,108.27424 74.2856762,88.6572803 C74.2856762,88.6572803 110.482831,58.9024351 152.544445,71.8618173 C153.989736,72.7248831 171.558415,80.078104 148.38353,97.21804 C146.769558,98.6072329 102.293685,117.92911 82.1362062,114.911728 Z M91.531645,128.493087 C91.6547019,128.468392 91.7698062,128.452905 91.8949559,128.443697 C98.0913329,127.988725 170.517035,125.420036 180.904045,76.2474644 C180.904045,76.2474644 185.376369,55.4397077 133.25548,54.392895 C131.673738,54.3610846 130.396289,53.0836466 130.37578,51.5010801 C130.24477,41.2652527 129.754217,9.85250066 111.037425,0.324454201 C108.331009,-1.0534376 105.527906,2.25442355 107.3679,4.67117545 C107.406408,4.72140237 107.445753,4.77204784 107.486353,4.82311188 C107.631594,5.00518446 107.761766,5.19813954 107.861802,5.40909259 C109.473681,8.80150239 123.54612,38.8627317 123.008269,53.0396981 C122.97311,53.971826 122.46414,54.8202423 121.685198,55.333394 C119.219036,56.9569792 116.646142,58.5123394 113.509446,56.8619666 C112.666045,56.4182955 112.125683,55.558578 112.027321,54.6105449 C111.237497,47.0262802 108.381237,12.8623488 89.3279213,1.16742932 C88.7796064,0.830908964 88.1283255,0.710364359 87.4891828,0.782774834 C84.886152,1.07785798 80.7423981,1.1063199 84.6676632,9.26568283 C84.7149605,9.36404388 84.7668621,9.45696368 84.8246235,9.54946492 C89.0437184,16.3531196 107.314325,60.2104278 99.4671429,64.8727415 C96.3488635,66.8663316 92.2335718,72.4348227 87.1346617,62.2035994 C86.9777013,61.8884255 86.8860364,61.5477195 86.8504588,61.1973868 C86.3712064,56.4689409 79.0857337,23.5970969 67.1734877,14.6278249 C65.4234841,13.3097869 62.9062583,14.3469728 62.5308091,16.5054746 C61.9937953,19.5927559 62.9213265,25.5220436 69.0448739,36.8419354 C69.0771031,36.9022077 69.1093323,36.9570387 69.1457471,37.0152182 C71.3770958,40.5587274 87.0626692,68.4991251 80.1375775,70.9765678 C80.1375775,70.9765678 39.3379256,81.5141753 43.2665391,109.740448 C47.0574461,136.975995 88.6197161,129.080741 91.531645,128.493087 Z" id="Stroke-11"></path>
                <path d="M74.3066798,99.1813946 C75.2998508,97.4019952 76.6581583,95.8548534 78.238886,94.5594274 C85.2878967,88.7852805 109.897257,71.1846273 143.19269,75.7465636 C145.280019,76.032642 147.28347,76.8436805 148.859608,78.2310158 C151.16727,80.2625451 152.856078,83.6205509 147.069396,87.7974612 C145.728615,88.7649941 144.26181,89.5396001 142.734496,90.1796539 C135.256502,93.3120262 104.853366,105.568685 84.4374418,106.657108 C83.0553483,106.730387 68.6606275,109.296398 74.3066798,99.1813946" id="Fill-13" fill="#FABDC3"></path>
                <path d="M74.3066798,99.1813946 C75.2998508,97.4019952 76.6581583,95.8548534 78.238886,94.5594274 C85.2878967,88.7852805 109.897257,71.1846273 143.19269,75.7465636 C145.280019,76.032642 147.28347,76.8436805 148.859608,78.2310158 C151.16727,80.2625451 152.856078,83.6205509 147.069396,87.7974612 C145.728615,88.7649941 144.26181,89.5396001 142.734496,90.1796539 C135.256502,93.3120262 104.853366,105.568685 84.4374418,106.657108 C83.0553483,106.730387 68.6606275,109.296398 74.3066798,99.1813946 Z" id="Stroke-15"></path>
            </g>
        </g>
    </g>
</svg>
