<svg width="963px" height="260px" viewBox="0 0 963 260" version="1.1" xmlns="http://www.w3.org/2000/svg" xmlns:xlink="http://www.w3.org/1999/xlink">
    <g id="site-design" stroke="none" stroke-width="1" fill="none" fill-rule="evenodd">
        <g id="about-page" transform="translate(-163.000000, -2004.000000)" fill="#FC576F">
            <g id="Group-3" transform="translate(163.000000, 2004.000000)">
                <path d="M961.7713,123.860862 C969.394101,104.317846 940.002009,87.6546005 916.281775,91.0835983 C833.881887,102.999566 600.205439,147.29591 498.122936,63.6589658 C372.532376,-39.2376943 254.742472,-7.83416817 55.0456819,89.7172109 C28.4462254,102.711589 -1.62296285,123.561526 0.0682193411,152.599097 C1.6174296,179.187861 28.4197031,199.854054 52.430122,213.594767 C130.700343,258.386218 236.956977,268.745373 327.580317,253.250071 C398.336166,241.153032 464.62692,215.690117 529.043176,188.585534 C561.806711,174.799386 585.294485,171.131855 622.316398,174.71052 C658.939698,178.249764 694.626138,187.183065 731.467856,189.3312 C800.325025,193.345506 934.256826,194.396522 961.7713,123.860862" id="Fill-1"></path>
            </g>
        </g>
    </g>
</svg>
