<svg width="562px" height="502px" viewBox="0 0 562 502" version="1.1" xmlns="http://www.w3.org/2000/svg" xmlns:xlink="http://www.w3.org/1999/xlink">
    <defs>
        <polygon id="path-1" points="0 0.139885714 83.8078608 0.139885714 83.8078608 79.5949714 0 79.5949714"></polygon>
        <polygon id="path-3" points="7.38964445e-13 -8.52651283e-14 500.623039 -8.52651283e-14 500.623039 500.626856 7.38964445e-13 500.626856"></polygon>
    </defs>
    <g id="site-design" stroke="none" stroke-width="1" fill="none" fill-rule="evenodd">
        <g id="about-page" transform="translate(-837.000000, -1705.000000)">
            <g id="Group-9" transform="translate(837.400785, 1705.000000)">
                <g id="Group-3">
                    <mask id="mask-2" fill="white">
                        <use xlink:href="#path-1"></use>
                    </mask>
                    <g id="Clip-2"></g>
                    <path d="M51.058918,63.4564571 L51.0451475,63.4660571 C46.186459,67.264 42.3619344,68.6985143 39.6789836,67.7330286 C36.8642951,66.7195429 36.134,63.3321143 35.8939344,62.2185143 C35.8705246,62.1101714 35.8517049,62.0237714 35.8360984,61.9634286 C35.0511803,35.6973714 58.0423934,19.2352 58.2599672,19.0816 C62.9446885,16.3168 66.5048197,15.6283429 68.8407541,17.0354286 C71.247377,18.4850286 72.366459,22.1723429 72.0786557,27.6845714 C70.5657377,40.1865143 51.8617377,62.9193143 51.058918,63.4564571 M27.1611475,45.9565714 C27.9726885,46.1901714 28.4450164,47.0144 28.2361639,47.8326857 C23.8580656,65.0176 26.0296721,72.8224 28.6226557,76.3433143 C30.8332787,79.3458286 33.473082,79.5286857 33.5837049,79.5346286 C34.2488197,79.5748571 34.9088852,79.5949714 35.5661967,79.5949714 C47.2302623,79.5949714 57.6246885,73.2845714 66.486459,60.8132571 C71.330918,53.9958857 75.4423279,45.7270857 78.7063934,36.2372571 C78.7876393,36.0013714 78.8519016,35.8148571 78.8991803,35.6822857 C78.9216721,35.6196571 78.945541,35.5634286 78.9758361,35.504 C79.729541,34.0173714 86.2434426,20.7067429 82.8200984,11.3124571 C81.5816721,7.91314286 79.1677049,5.42308571 75.6461311,3.91177143 C59.6875082,-2.93805714 46.7322295,19.1245714 46.6142623,19.3307429 C46.3898033,19.6489143 46.0620656,19.8180571 45.6122295,19.8468571 C41.4962295,20.112 30.2452787,8.99245714 28.7846885,7.39977143 C28.7530164,7.36548571 28.7227213,7.3344 28.6892131,7.30285714 C23.982918,2.80822857 20.2690164,0.401371429 17.6507869,0.149485714 C16.9383934,0.08 16.254459,0.379885714 15.8239016,0.949942857 C15.4016066,1.50902857 15.303377,2.22902857 15.5604262,2.8768 C18.8814098,11.2347429 36.9556393,20.9001143 39.8841639,22.0297143 C40.0654754,22.0996571 40.2256721,22.1961143 40.3592459,22.3154286 C42.0952459,23.8651429 42.9164262,25.1510857 42.8696066,26.2468571 C42.8195738,27.4208 41.7390492,28.2326857 40.7856721,28.9485714 C40.4758361,29.1812571 40.1834426,29.4006857 39.9277705,29.6306286 C39.576623,29.9670857 39.0280984,30.1257143 38.3056066,30.1060571 C31.793082,29.9195429 13.3117049,15.6050286 10.1008852,12.1526857 C10.0508525,12.0987429 9.99852459,12.0475429 9.94206557,11.9986286 C8.20101639,10.4868571 6.88180328,9.86742857 5.91006557,10.1037714 C4.93511475,10.3414857 4.53668853,11.3526857 4.2167541,12.1650286 L4.13504918,12.3707429 C3.96521312,12.7922286 3.93721312,13.2493714 4.05609836,13.6580571 C6.51091803,22.0978286 15.7320984,29.4550857 31.4630492,35.5245714 L31.9381311,35.7083429 C32.4228525,35.8966857 32.775377,36.2953143 32.8809508,36.7748571 C33.2991148,38.6729143 32.2057377,39.808 30.7327541,41.0944 C30.3522295,41.4267429 29.8440984,41.5588571 29.3736066,41.4486857 C21.0089508,39.4925714 5.64567213,26.4379429 3.92160656,24.9558857 C3.83714754,24.8832 3.75590164,24.7931429 3.67281967,24.6788571 L3.59983607,24.5819429 C2.94573771,23.7270857 1.92213115,23.6758857 1.19872131,24.0036571 C0.465672132,24.336 -0.176032786,25.1483429 0.043836066,26.2144 C2.65655738,38.9024 21.1002951,44.2116571 27.1611475,45.9565714" id="Fill-1" fill="#FABDC3" mask="url(#mask-2)"></path>
                </g>
                <path d="M64.5641982,21.231611 C63.3526695,21.5207286 62.1777136,22.0555733 61.0717366,22.8215293 C56.601071,25.9177819 41.8011632,37.6062614 39.0670065,58.026274 C38.8813654,59.4133988 39.0832096,60.7484551 39.6507809,61.8861989 C40.2243705,63.0367315 40.9942491,63.7264117 41.9386581,63.9346859 C42.1363358,63.9785331 42.3400319,64 42.5502092,64 C43.5700784,64 44.7376271,63.4875357 46.0297083,62.4708284 C46.7940315,61.8692995 47.5051159,61.1522149 48.2050897,60.2775543 C51.7688448,55.8215813 63.7054341,40.3750302 67.6608412,28.6865508 C67.6839885,28.6198665 67.7330608,28.5002001 67.7997249,28.3380568 C68.352482,26.9906684 69.8204824,23.4111829 68.395073,21.7815282 C67.6927845,20.9776626 66.4044069,20.7931389 64.5641982,21.231611" id="Fill-4" fill="#FABDC3"></path>
                <g id="Group-8" transform="translate(60.000000, 1.000000)">
                    <mask id="mask-4" fill="white">
                        <use xlink:href="#path-3"></use>
                    </mask>
                    <g id="Clip-7"></g>
                    <path d="M500.808667,476.196523 L481.071832,456.325656 L480.952306,456.242004 C480.145394,455.677922 477.871202,454.475248 474.428773,452.655008 C457.70206,443.809799 418.531095,423.095551 406.829952,402.37399 C405.596228,400.262568 401.04418,393.223883 394.154743,382.57032 C366.140875,339.249819 300.576278,237.864058 299.702505,221.512533 C299.702047,221.506133 299.702505,221.501562 299.704795,221.495163 C299.941556,220.770633 302.385648,212.71852 298.997716,199.202948 C296.97036,191.113352 292.707739,183.696633 286.671467,177.754571 C284.324919,175.444303 281.578578,172.825481 278.671038,170.053525 C257.697731,150.05558 226.002382,119.835589 233.29207,101.298132 C233.338781,101.090144 237.204816,84.7797594 254.988026,86.8445559 C254.993521,86.845013 254.999017,86.8463844 255.004512,86.8482129 L276.036437,94.6068561 L276.111999,94.6347402 L276.188477,94.6091417 C276.318078,94.5661727 279.389565,93.506576 281.583157,89.5314884 C283.589447,85.8951244 285.180832,79.016888 281.372041,66.8968935 L281.348228,66.8456964 C281.009801,66.2966992 280.619167,65.5237147 280.165795,64.6291371 C277.770703,59.896607 273.31162,51.0884236 262.727422,47.6787895 C252.075906,44.248128 237.748405,47.1302494 220.098459,56.2766992 C219.936802,56.405149 219.656535,56.5907384 219.302996,56.8247822 C217.07872,58.2985267 211.171134,62.213732 207.216714,70.5323433 C202.270369,80.938607 201.956672,94.5227466 206.285697,110.906727 C206.801809,112.859987 207.234116,114.693482 207.58445,116.408127 C207.596815,116.470295 207.522626,116.511435 207.475915,116.468924 C178.672537,90.3044729 141.696997,50.97643 139.730091,48.8805495 C139.720474,48.8700359 139.71681,48.8581508 139.71681,48.843066 C139.819849,32.2625258 134.411889,22.4459428 129.85114,17.1278461 C125.308252,11.8303196 120.670567,9.81672016 119.877851,9.49948111 C119.863197,9.49353859 119.854496,9.48256779 119.849,9.46839717 C117.641211,3.96059699 113.994536,3.64427217 113.83929,3.63330137 L113.674885,3.62233057 L113.611688,3.77455046 C107.848814,17.7170696 107.35972,29.7086143 112.157688,39.4164036 C118.748998,52.7505003 133.32471,57.1872758 134.448983,57.5113716 C134.4586,57.5141143 134.465469,57.5186855 134.473254,57.5250851 L162.887373,83.5524008 C177.401261,97.6846234 178.070787,101.102943 177.684733,101.916611 C177.523992,102.255791 177.078862,102.210994 177.063292,102.208708 L177.037646,102.205508 L177.012459,102.208251 C167.812652,103.100086 97.6282305,50.6998744 95.310991,48.9660304 C95.3041218,48.9610021 95.3004581,48.9555167 95.2967945,48.9482028 C81.447396,20.4158871 34.2627214,0.716896259 33.7873667,0.520793157 L33.428332,0.373144434 L33.4727534,0.758493887 C39.6157278,54.2553287 75.6428484,54.3056116 87.4813777,54.3220678 C89.2367095,54.3248105 90.8949554,54.326639 91.1056135,54.5634255 C110.01905,75.7873579 182.097105,114.55909 182.884784,114.981008 L207.936157,130.717711 C207.962261,130.734624 207.974167,130.768451 207.963177,130.798164 C207.469962,132.174085 206.728537,133.183856 205.733864,133.816049 C205.494355,133.968269 205.238817,134.08849 204.977327,134.193627 C204.959466,134.200941 204.938859,134.200027 204.921456,134.191342 C204.921456,134.191342 112.408188,87.2093351 112.403609,87.2075067 L55.5085102,63.4845167 C55.5039307,63.4822311 55.501183,63.4808598 55.4975194,63.4776599 C54.8069271,62.9263771 42.5351748,53.1198506 34.4220888,46.2027594 C31.4664636,43.6826745 28.7581327,40.6163351 26.1423082,36.8286654 C25.7095431,36.2015012 25.2918905,35.8198087 25.1348128,35.6872448 C25.0739051,35.4824565 24.8595834,35.0180258 24.1442616,34.8146089 C23.4884737,34.6294766 22.7978814,34.7606691 22.2291044,35.1876161 C21.731768,35.5610806 21.4304353,36.1370477 21.3168631,36.7477557 C18.2366748,53.2848698 4.78981645,68.2161326 0.734189397,72.4056079 L0.699385009,72.4517767 C0.404921572,72.9710614 -0.0406661792,73.7554738 0.373780804,74.3574966 C0.709002011,74.8438689 1.66932834,75.4134364 6.1151309,74.7497028 C6.11971042,74.7492457 6.12428995,74.7487886 6.12886947,74.7492457 C6.4869883,74.7789583 6.90830457,74.8109565 7.3877808,74.8475258 C12.3982388,75.2287612 24.130981,76.1205961 34.4564353,79.8415267 C41.5418759,81.7262193 52.0775303,83.6534236 61.8319179,78.6959921 C61.8447406,78.6895924 61.8575633,78.6868497 61.8713018,78.6895924 C65.4662287,79.3076143 103.380114,95.1009994 141.7231,112.335674 C152.459337,117.161456 166.11548,123.399271 179.565544,129.81582 C179.615919,129.83959 179.616835,129.909071 179.566918,129.932842 C174.055002,132.540693 166.963608,137.158944 163.256025,144.672572 C159.435327,152.416588 159.89557,161.676403 164.624387,172.195574 L164.702697,172.370193 L164.889083,172.324024 C165.293913,172.223001 166.063273,171.626007 167.337755,170.636806 C172.146256,166.904904 183.406849,158.16346 195.46657,161.811709 C213.703611,165.856736 227.976157,175.960845 237.888997,191.842911 C237.892202,191.847939 237.894034,191.852053 237.895866,191.857539 C238.712395,194.678406 256.446604,224.906625 287.392284,230.357743 C287.409229,230.360943 287.422509,230.368714 287.43121,230.383342 C316.049576,280.594878 345.661699,330.093312 375.49547,379.618259 C382.381701,391.048922 389.325177,402.557751 398.241053,412.493642 C409.206267,424.712373 422.883018,434.232745 437.183957,442.315484 C445.329558,446.91865 453.720163,451.093498 462.339286,454.736718 C463.764892,455.338741 465.253696,455.967277 466.252948,457.147552 C467.2522,458.328285 467.568646,460.243604 466.518561,461.378625 C465.17218,462.835456 462.772967,462.134696 460.966803,461.311886 C447.003832,454.95202 433.621545,447.322741 421.039759,438.549299 C403.290895,426.171033 387.034498,411.390619 374.55621,393.72854 C357.165465,369.113258 347.597922,339.693222 330.349142,314.978746 C326.674989,309.714132 322.608371,304.627793 317.507239,300.723102 C316.317478,299.812525 315.009108,298.943089 313.519847,298.76847 C302.787731,297.509571 313.202944,336.673508 314.81631,341.996176 C320.013613,359.138513 328.147306,375.213025 336.839244,390.818078 C342.833842,401.580435 347.027313,415.995156 359.473545,421.133149 C360.171922,421.42159 360.875795,421.737457 361.623174,422.09858 C366.55807,424.47833 378.512461,429.831624 382.915674,428.164062 C383.566424,427.917676 384.035826,427.524556 384.314261,426.9943 C384.326167,426.971902 384.346317,426.959102 384.371505,426.962302 C385.144986,427.069725 433.738323,462.570786 459.0663,468.948936 C459.090571,468.954879 459.10889,468.971335 459.113927,468.996477 C459.186741,469.378169 459.291613,470.362799 458.637656,471.0855 C457.806931,472.004305 455.992065,472.233778 453.413335,471.752891 C453.073534,471.642269 425.784604,462.683237 395.611032,450.388166 C375.03248,442.001902 349.970115,430.755 332.752934,419.562039 C332.424124,418.891905 332.063258,418.18566 331.663923,417.434617 C319.884012,395.299194 277.261002,393.575406 277.261002,393.575406 C277.261002,393.575406 277.680029,403.702372 280.192814,410.453987 C285.782124,432.975217 312.341993,428.792141 321.010117,426.781284 C324.974612,429.699518 339.771514,440.242002 360.960517,451.203663 C376.634856,459.312 415.956944,470.237549 439.201696,476.32223 C451.259584,479.478622 462.540327,485.063675 472.359744,492.728609 L482.95768,501.000137 L482.880286,500.287492 C482.84365,499.95014 498.991512,486.162583 500.827444,476.255491 C500.831565,476.234007 500.824238,476.212065 500.808667,476.196523" id="Fill-6" fill="#FABDC3" mask="url(#mask-4)"></path>
                </g>
            </g>
        </g>
    </g>
</svg>
