<svg width="561px" height="536px" viewBox="0 0 561 536" version="1.1" xmlns="http://www.w3.org/2000/svg" xmlns:xlink="http://www.w3.org/1999/xlink">
    <g id="site-design" stroke="none" stroke-width="1" fill="none" fill-rule="evenodd">
        <g id="about-page" transform="translate(-412.000000, -1671.000000)" fill="#10093F">
            <g id="Group-3-Copy-5" transform="translate(412.000000, 1671.000000)">
                <path d="M140.462784,61.2177182 C133.813677,61.2177182 128.423117,56.1707486 128.423117,49.94425 C128.423117,43.7169473 133.813677,38.6699777 140.462784,38.6699777 C147.111891,38.6699777 152.502451,43.7169473 152.502451,49.94425 C152.502451,56.1707486 147.111891,61.2177182 140.462784,61.2177182 M69.8605702,111.531429 C60.7048046,115.407714 51.0080567,118.020046 41.060081,118.909316 C38.3447347,119.152136 35.6197567,119.277567 32.896384,119.291236 C31.8015769,119.295256 30.6690456,119.274351 29.6793849,118.843384 C27.5210739,117.905068 26.9351434,114.5892 29.6111601,113.909785 C31.2630025,113.490075 33.7022391,113.70395 35.4375564,113.696714 C48.2581967,113.635606 60.9913487,109.244735 71.2940933,101.881321 C72.7589194,100.833655 74.1940478,99.7160372 75.850706,98.978731 C77.5651546,98.2156954 80.6384803,97.5017064 81.925922,99.2657738 C86.0322512,104.895674 73.584038,109.954704 69.8605702,111.531429 M451.526047,268.267292 C443.43539,260.706888 434.596669,253.989924 425.126267,248.258715 C319.621861,184.41861 269.548885,251.565738 266.477967,256.180937 C256.846233,266.633479 257.648878,259.397104 257.648878,259.397104 C329.084237,130.750437 270.49119,50.3462708 267.280612,44.7179791 C227.951032,-5.13260412 168.555341,-0.308354127 166.147407,0.495687539 C89.8961817,10.1441875 78.659159,73.6634791 78.659159,73.6634791 C77.3139269,79.0529704 56.2461146,90.6512714 49.4509264,94.270263 C48.3376585,94.8636457 47.2396408,95.4779335 46.1608867,96.1316194 C31.3344378,105.105528 3.12469496,106.629187 0,106.629187 C0.276109701,109.945859 2.6382924,113.452285 5.62011665,116.625837 C12.2957108,123.732762 21.3471326,128.129262 31.004551,129.403668 C94.8348532,137.826004 109.159649,109.845354 109.159649,109.845354 C167.752696,123.514062 194.239964,80.8998541 194.239964,80.8998541 C213.503432,84.9200624 216.714009,125.122146 216.714009,125.122146 C218.319298,168.540396 167.752696,246.532437 167.752696,246.532437 C142.068073,283.518354 129.225761,342.213395 146.081295,392.86802 C162.936829,443.522645 192.634675,450.75902 195.042609,451.563062 C195.942373,451.862969 197.400778,452.49977 198.876039,453.179186 C204.176703,455.622668 209.612211,457.771872 215.1633,459.571317 C286.28322,482.625604 329.084237,457.191354 329.084237,457.191354 C321.057792,431.46202 324.26837,415.381187 324.26837,415.381187 C236.780121,390.455895 244.003922,304.423437 244.003922,304.423437 C244.806566,294.774937 252.833011,297.187062 252.833011,301.20727 C252.833011,320.50427 256.846233,338.997229 258.451522,343.017437 C272.899123,397.69227 321.860436,408.144812 331.49217,409.752895 C354.917349,407.144584 367.792569,412.993183 371.827463,415.300783 C372.86769,415.89497 373.309145,417.17822 372.841203,418.282169 C369.568822,425.996949 346.742415,416.98927 346.742415,416.98927 C331.572435,413.190173 331.396655,422.945611 332.883956,429.6875 C333.590283,432.889194 334.358414,438.173356 334.651379,441.439373 C335.907517,455.463468 347.857288,463.876156 360.032602,468.451153 C373.591676,473.546365 388.312978,475.232441 402.686735,476.055779 C404.553686,476.163521 406.417427,476.328349 408.274746,476.550265 C432.248132,479.407025 457.939176,491.782834 472.426106,511.634623 C475.17998,515.40799 479.178754,520.631849 479.178754,525.534895 C479.178754,536.791479 483.191977,535.987437 483.191977,535.987437 C504.060733,503.021729 494.428999,462.819645 493.626355,456.387312 C487.205199,418.597354 460.717931,407.34077 456.704709,405.732687 C453.258956,391.924879 472.890837,398.27118 478.510151,400.341588 C479.430785,400.680893 480.320917,401.099799 481.162891,401.603933 C531.202156,431.5376 521.718912,487.744937 521.718912,487.744937 C521.718912,487.744937 523.939026,485.520958 526.757111,481.7098 C532.970382,473.305957 536.103906,463.054425 536.070195,452.597864 C536.066182,451.243857 536.148854,450.075585 536.29333,449.066513 C536.851971,445.178167 542.355704,443.419728 544.237905,446.866655 C553.824691,464.427729 557.035269,487.744937 557.035269,487.744937 C581.556058,399.449101 485.69382,300.190158 451.526047,268.267292" id="Fill-1"></path>
            </g>
        </g>
    </g>
</svg>
