<svg width="181px" height="516px" viewBox="0 0 181 516" version="1.1" xmlns="http://www.w3.org/2000/svg" xmlns:xlink="http://www.w3.org/1999/xlink">
    <defs>
        <polygon id="path-1" points="0.897680896 0.145333203 323.897681 0.145333203 323.897681 457.145333 0.897680896 457.145333"></polygon>
    </defs>
    <g id="site-design" stroke="none" stroke-width="1" fill="none" fill-rule="evenodd">
        <g id="about-page" transform="translate(-68.000000, -1797.000000)">
            <g id="Group-3-Copy-6" transform="translate(173.000000, 2039.000000) rotate(23.000000) translate(-173.000000, -2039.000000) translate(11.000000, 1810.000000)">
                <mask id="mask-2" fill="white">
                    <use xlink:href="#path-1"></use>
                </mask>
                <g id="Clip-2"></g>
                <path d="M323.820568,456.429117 C323.783848,456.089614 320.172857,422.350711 321.982254,412.39213 L322.008417,412.246957 L321.888158,412.162886 C321.079391,411.595977 318.799974,410.387275 315.350094,408.557914 C298.584943,399.668374 259.323509,378.850313 247.595936,358.024902 C246.358918,355.902898 241.79687,348.828938 234.891601,338.121982 C206.806934,294.575183 141.071021,192.649149 140.221862,176.246916 C140.443561,175.572046 142.924482,167.470391 139.515453,153.835629 C137.48298,145.705491 133.211023,138.2516 127.16088,132.279759 C124.809399,129.958372 122.057206,127.327344 119.143443,124.541496 C98.1205647,104.442408 66.3500886,74.0686668 73.658822,55.4406026 C73.6955423,55.274297 77.5557727,38.8256631 95.4133544,40.91459 L116.501871,48.7148736 L116.577607,48.7433569 L116.653801,48.7176301 C116.7837,48.6744458 119.862704,47.6095387 122.060878,43.6145292 C124.071778,39.9599408 125.667279,33.0467734 121.849277,20.8664966 L121.825867,20.8150429 C121.486204,20.2632942 121.094214,19.4864358 120.640258,18.5869155 C118.239663,13.8311268 113.770792,4.97834006 103.162273,1.55207729 C92.4853628,-1.89669645 78.1235616,1.00078803 60.4390248,10.1894018 C60.2774551,10.3189548 59.9956261,10.5068525 59.6380614,10.7439069 C57.4086751,12.2254968 51.4875132,16.1598645 47.5240068,24.5197068 C42.5653779,34.9785829 42.2514186,48.630802 46.59085,65.0973529 C49.9847315,77.9777671 49.7988345,85.7238406 46.0377492,88.1210301 C40.2680589,91.8004265 27.8065376,81.5046401 27.6812293,81.400814 L27.5931004,81.3273087 L27.4811032,81.353495 C27.3075994,81.3948417 10.049937,85.6439037 3.46230014,99.0319634 C-0.367635893,106.81433 0.0941229344,116.121012 4.83380648,126.693362 L4.9122963,126.868855 L5.09865225,126.821996 C5.5048715,126.720007 6.27599956,126.12048 7.55340991,125.126322 C12.3729603,121.375717 23.6608063,112.591382 35.7468616,116.256996 C54.0285638,120.323214 68.3357433,130.480259 78.2709022,146.446056 C79.0608494,149.236039 96.8504984,179.681448 127.910435,185.151615 C130.192148,189.177865 198.173972,309.035501 215.168165,331.749537 C217.266276,334.554221 219.014625,337.561504 220.364559,340.687314 C227.32812,356.810688 247.470169,387.377839 304.13018,410.937186 C306.151637,411.777902 307.659009,413.495168 308.162078,415.531263 C308.385155,416.433081 308.32732,417.024798 307.979853,417.392324 C307.395999,418.010687 305.867972,418.094299 303.476098,417.648214 C303.293874,417.580222 284.993811,410.700132 263.008858,395.385775 C242.724518,381.256232 215.066266,356.852494 198.49298,320.83401 C197.15085,317.864398 165.445552,248.166275 150.863429,254.211162 C149.970206,254.580985 149.386352,255.473614 149.375794,256.485689 C149.286748,265.01 149.997746,308.636735 172.813497,331.135309 C173.062737,334.540439 184.624609,370.457853 200.13025,376.878076 C200.82656,377.166584 201.531592,377.483575 202.285278,377.848345 C207.231513,380.240481 219.211539,385.621524 223.626706,383.944226 C224.29364,383.690633 224.771005,383.283138 225.047785,382.73139 C225.751898,382.819137 228.968145,383.521112 232.516711,389.04503 L232.58602,389.11486 C233.266724,389.548082 234.454629,390.381447 236.098784,391.53502 C246.635698,398.927809 274.595057,418.544059 299.992252,424.943609 C300.064775,425.295515 300.20064,426.329182 299.52269,427.080773 C298.689137,428.005102 296.869183,428.235265 294.28774,427.751968 C294.014633,427.662843 266.631783,418.652479 236.351237,406.279711 C208.418959,394.866185 172.242037,378.179578 158.518252,363.496448 L158.032625,362.976858 L160.430007,381.694047 L160.505743,381.752392 C160.665477,381.875513 176.760021,394.20326 201.621098,407.099294 C224.568584,419.002548 259.894511,433.840039 297.869355,436.928178 L298.0883,436.946095 L298.11584,436.727417 C298.119053,436.702609 298.450914,434.189189 300.073037,433.631927 C301.401856,433.176654 303.236957,434.108333 305.519588,436.392508 L323.897681,457.145333 L323.820568,456.429117 Z" id="Fill-1" fill="#861148" mask="url(#mask-2)"></path>
            </g>
        </g>
    </g>
</svg>
