<svg width="116px" height="80px" viewBox="0 0 116 80" version="1.1" xmlns="http://www.w3.org/2000/svg" xmlns:xlink="http://www.w3.org/1999/xlink">
    <defs>
        <polygon id="path-1" points="0 0 115 0 115 80 0 80"></polygon>
    </defs>
    <g id="site-design" stroke="none" stroke-width="1" fill="none" fill-rule="evenodd">
        <g id="about-page" transform="translate(-280.000000, -1997.000000)">
            <g id="Group-3" transform="translate(280.400785, 1997.000000)">
                <mask id="mask-2" fill="white">
                    <use xlink:href="#path-1"></use>
                </mask>
                <g id="Clip-2"></g>
                <path d="M15.5520452,11.1972402 C23.7772754,2.48586858 35.1828518,-1.60034526 48.52789,0.576241776 C68.2678717,3.7955525 91.9938111,10.8699986 106.704607,25.1028541 C115.120358,33.2458587 116.548196,44.3993423 113.592622,55.37557 C110.599943,66.4867131 101.263696,72.9870512 90.6280533,75.9279195 C62.8997441,83.5965674 32.5319686,80.7454035 8.21948112,64.7155899 C5.90682639,63.1906155 3.61557852,61.5278551 1.97938065,59.2859633 C-1.09179059,55.0763162 0.0991445402,50.0787059 1.00750908,45.3408795 C2.40823146,38.0353549 4.16858914,30.7449007 7.21193145,23.9359795 C9.41683831,19.0043916 12.2239916,14.7222634 15.5520452,11.1972402" id="Fill-1" fill="#861148" mask="url(#mask-2)"></path>
            </g>
        </g>
    </g>
</svg>
