<svg width="525px" height="285px" viewBox="0 0 525 285" version="1.1" xmlns="http://www.w3.org/2000/svg" xmlns:xlink="http://www.w3.org/1999/xlink">
    <defs>
        <polygon id="path-1" points="0 0.392783932 411.451498 0.392783932 411.451498 284 0 284"></polygon>
    </defs>
    <g id="site-design" stroke="none" stroke-width="1" fill="none" fill-rule="evenodd">
        <g id="about-page" transform="translate(-665.000000, -1588.000000)">
            <g id="Group-12" transform="translate(665.400785, 1588.000000)">
                <g id="Group-3" transform="translate(0.400785, 0.500000)">
                    <mask id="mask-2" fill="white">
                        <use xlink:href="#path-1"></use>
                    </mask>
                    <g id="Clip-2"></g>
                    <path d="M87.3526505,184.209134 L87.3115972,184.254515 C85.1518961,187.130381 29.5648854,248.542454 9.11810249,255.111052 C9.09977509,255.115443 7.20765409,255.334299 6.2890847,254.147062 C5.53692811,253.173557 5.62123416,251.436619 6.53320569,249.119237 C8.12842278,247.949567 31.2773979,230.890536 54.220373,210.089 C85.8798605,181.386701 102.164124,159.548711 102.627441,145.173773 C103.167732,144.908804 104.804736,144.205392 105.897049,144.838536 C106.643341,145.272588 107.025284,146.280495 107.031882,147.835175 C106.78043,148.906031 101.483078,170.805505 87.3526505,184.209134 L87.3526505,184.209134 Z M403.055348,19.4327732 L411.451498,2.66579381 L410.958124,2.58747423 C398.642843,0.622896907 364.690964,-1.65715464 324.345754,3.7754433 C294.73527,7.76315464 265.956117,15.1625258 238.810302,25.7671443 C204.902409,39.0134021 173.460651,57.3262784 145.355213,80.1977938 C140.674394,81.2737732 104.28717,94.873567 68.846373,127.294948 C48.7214192,145.705175 32.7164655,166.697021 21.2750349,189.686381 C7.15780356,218.053443 -0.000146619217,249.545969 -0.000146619217,283.288536 L-0.000146619217,284 L0.579732384,283.587175 C11.4940669,275.802794 112.406209,193.005082 139.983085,151.699918 C143.741668,144.19368 156.692544,105.361804 156.161049,98.9330103 C156.289341,98.7485567 156.441825,98.5238454 156.619967,98.2618041 C172.495163,74.8910928 196.232814,59.2030206 213.350608,50.1582062 C261.56707,24.6801856 325.310508,14.3354124 402.812693,19.4166701 L403.055348,19.4327732 Z" id="Fill-1" fill="#861148" mask="url(#mask-2)"></path>
                </g>
                <path d="M394.863162,32.716046 C391.559548,36.2874384 390.077478,40.4674581 390.459568,45.1406631 C390.720418,48.3226218 392.702881,51.1692145 395.633222,52.5705915 C399.072772,54.213812 405.245004,56.5 412.949273,56.5 C421.021672,56.5 430.776004,53.9902346 440.830865,45.6031614 C441.167398,45.3218631 441.489971,45.0880567 441.816952,44.88786 C447.038367,41.6832513 453.655882,38.1893072 459.972869,35.3017984 C463.421971,33.724336 465.500691,30.405016 465.397085,26.6378107 C465.29495,22.9129828 463.065598,19.7492902 459.580491,18.3800616 L458.950041,18.1338343 C457.861818,17.7107909 456.744938,17.482099 455.559722,17.5010958 C447.757726,17.5186312 408.165058,18.3369536 394.863162,32.716046" id="Fill-4" fill="#861148"></path>
                <path d="M426.643006,113.013188 C422.770498,110.192938 417.948184,108.849055 413.749883,109.417058 C411.497631,109.721554 409.399206,110.640899 407.842076,112.00674 C407.121559,112.639155 406.622348,113.450901 406.139827,114.235564 C405.568057,115.165156 405.027487,116.044243 404.159674,116.607853 C403.10901,117.28931 402.120748,117.313465 400.951812,116.682514 C394.728371,113.324272 393.716164,102.770842 397.943489,85.315011 C398.174954,84.3612644 399.410645,80.4350199 400.719621,76.2782073 C402.127278,71.8088469 403.722865,66.7422054 404.470229,64.1020182 L404.560929,63.7821508 L404.254002,63.6606451 C404.200307,63.6394182 383.937301,55.6090623 383.937301,55.6090623 L383.662299,55.5 L383.500491,55.750331 C374.804943,69.2316084 372.044049,85.8434876 373.997355,101.655332 C375.712665,115.540653 379.128773,131.564034 391.12651,140.237785 C395.054164,143.077066 399.526015,144.5 404.493448,144.5 C407.543856,144.5 410.781467,143.963472 414.193222,142.88822 C421.002219,140.743571 429.929958,131.968077 431.236032,123.870381 C431.944939,119.472021 430.357334,115.717056 426.643006,113.013188" id="Fill-6" fill="#861148"></path>
                <path d="M462.876012,73.7621017 C470.705717,66.1212627 499.975779,46.3205576 502.580566,46.3205576 C503.120521,46.3205576 503.297339,46.0465221 503.355061,45.8828316 C503.493155,45.4896821 503.816835,44.568923 495.749667,38.0892635 C494.026781,36.7059326 491.95245,35.8801725 489.751716,35.7025975 C479.40271,34.868799 444.318821,34.9382213 427.447984,70.8675567 C425.895341,74.1749818 426.078005,78.0260933 427.937523,81.1705587 C429.792658,84.3069857 432.932285,86.236926 436.551953,86.4671157 C436.903398,86.4890386 437.257766,86.5 437.617248,86.5 C444.622043,86.5 453.156831,82.2732773 462.388664,74.2151737 C462.556715,74.0682907 462.716729,73.9170231 462.876012,73.7621017" id="Fill-8" fill="#861148"></path>
                <path d="M516.626298,51.5549194 L516.518526,51.5 L516.399024,51.5215225 C516.275122,51.543045 503.819755,53.8051315 490.675966,60.178011 C478.511656,66.0751696 463.247617,76.8000424 459.609762,94.3994911 C458.966062,97.5157973 459.829705,100.764207 461.920629,103.089377 C464.54968,106.012723 466.964653,107.370865 469.750596,107.491836 C469.884762,107.497031 470.018927,107.5 470.155291,107.5 C475.358408,107.5 482.152445,103.223707 492.722901,93.321883 C494.891539,91.2906064 496.615891,88.956531 497.849038,86.3849661 C504.213453,73.110793 513.569091,63.206743 521.69085,61.1509754 C521.79349,61.1227735 524.212129,60.4340543 524.390283,58.610581 C524.586032,56.6067642 522.047158,54.2986641 516.626298,51.5549194" id="Fill-10" fill="#861148"></path>
            </g>
        </g>
    </g>
</svg>
