<svg width="82px" height="218px" viewBox="0 0 82 218" version="1.1" xmlns="http://www.w3.org/2000/svg" xmlns:xlink="http://www.w3.org/1999/xlink">
    <g id="site-design" stroke="none" stroke-width="1" fill="none" fill-rule="evenodd">
        <g id="about-page" transform="translate(-1118.000000, -2077.000000)" fill="#10093F">
            <g id="Group-13-Copy-9" transform="translate(1118.000000, 2077.000000)">
                <path d="M30.3049469,156.479471 C30.3049469,156.479471 -4.69505306,168.479471 24.3049469,199.479471 C28.3049469,202.479471 67.3049469,231.479471 81.3049469,208.479471 C83.3049469,203.479471 81.3049469,170.479471 30.3049469,156.479471" id="Fill-1"></path>
                <path d="M10.3048469,69.4795706 C5.83784694,69.6825706 -11.6951531,85.4795706 13.3048469,107.479571 C24.3048469,115.479571 52.3048469,142.479571 53.3048469,111.479571 C52.3048469,102.479571 54.3048469,67.4795706 10.3048469,69.4795706" id="Fill-5"></path>
                <path d="M4.30484694,1.47957058 C4.30484694,1.47957058 -10.6951531,23.4795706 15.3048469,37.4795706 C20.3048469,42.4795706 45.3048469,49.4795706 39.3048469,27.4795706 C39.3048469,27.4795706 43.3048469,-7.52042942 4.30484694,1.47957058" id="Fill-9"></path>
            </g>
        </g>
    </g>
</svg>
