<?xml version="1.0" encoding="UTF-8"?>
<svg width="1331px" height="771px" viewBox="0 0 1331 771" version="1.1" xmlns="http://www.w3.org/2000/svg" xmlns:xlink="http://www.w3.org/1999/xlink">
    <!-- Generator: Sketch 54.1 (76490) - https://sketchapp.com -->
    <title>Group</title>
    <desc>Created with Sketch.</desc>
    <defs>
        <polygon id="path-1" points="0 0 963 0 963 260 0 260"></polygon>
        <polygon id="path-3" points="0.897680896 0.145333203 323.897681 0.145333203 323.897681 457.145333 0.897680896 457.145333"></polygon>
        <polygon id="path-5" points="0 0.392783932 411.451498 0.392783932 411.451498 284 0 284"></polygon>
        <polygon id="path-7" points="0 0 115 0 115 80 0 80"></polygon>
        <polygon id="path-9" points="0 0.139885714 83.8078608 0.139885714 83.8078608 79.5949714 0 79.5949714"></polygon>
        <polygon id="path-11" points="7.38964445e-13 -8.52651283e-14 500.623039 -8.52651283e-14 500.623039 500.626856 7.38964445e-13 500.626856"></polygon>
    </defs>
    <g id="site-design" stroke="none" stroke-width="1" fill="none" fill-rule="evenodd">
        <g id="about-page" transform="translate(-68.000000, -1562.000000)">
            <g id="Group" transform="translate(-66.000000, 1562.000000)">
                <g id="Group-11-Copy-5" transform="translate(307.000000, 0.000000)">
                    <path d="M92.7162755,134.360792 C100.418425,135.035859 125.635125,135.429159 158.992753,117.263136 C161.310626,116.679894 164.382492,116.152839 159.824077,126.400446 C158.562801,133.112546 153.969082,153.945296 155.518674,173.723095 C155.427052,185.060455 154.073733,203.109495 141.695489,216.555078 C140.20894,226.275211 175.48601,483.766068 194,519.935428 L181.219123,520 L133.873979,300.672677 L120.961972,199.883008 C120.961972,199.883008 110.366159,175.276589 102.619879,158.789009 C99.6673748,152.504593 95.7221563,146.771551 91.2473782,141.456967 C90.2685336,140.294677 89.8730451,139.331552 89.8730451,139.331552 C89.8730451,139.331552 89.0114602,138.972215 89.0001125,137.641787 C88.9837213,135.684511 90.7615283,134.189299 92.7162755,134.360792" id="Fill-1" fill="#FABDC3"></path>
                    <path d="M92.7162755,134.360792 C100.418425,135.035859 125.635125,135.429159 158.992753,117.263136 C161.310626,116.679894 164.382492,116.152839 159.824077,126.400446 C158.562801,133.112546 153.969082,153.945296 155.518674,173.723095 C155.427052,185.060455 154.073733,203.109495 141.695489,216.555078 C140.20894,226.275211 175.48601,483.766068 194,519.935428 L181.219123,520 L133.873979,300.672677 L120.961972,199.883008 C120.961972,199.883008 110.366159,175.276589 102.619879,158.789009 C99.6673748,152.504593 95.7221563,146.771551 91.2473782,141.456967 C90.2685336,140.294677 89.8730451,139.331552 89.8730451,139.331552 C89.8730451,139.331552 89.0114602,138.972215 89.0001125,137.641787 C88.9837213,135.684511 90.7615283,134.189299 92.7162755,134.360792 Z" id="Stroke-3"></path>
                    <path d="M90.4664701,253.160073 C88.0009618,249.355326 127.206784,177.092456 30.1473975,138 C30.1473975,138 40.5221856,222.14015 80.336511,256.949273 C80.336511,256.949273 135.086668,395.944159 129.441322,410.678675 C129.441322,410.678675 127.899277,421.173137 105.218785,380.068009 L76.1328426,323.325816 C76.1328426,323.325816 76.5141544,257.421137 0.0657614151,266.858 C0.0657614151,266.858 -1.13780639,272.830885 6.7529958,278.726036 C6.7529958,278.726036 9.43435674,313.788108 60.6745973,327.474271 C60.6745973,327.474271 160.603481,490.311535 161.947311,523 L172,510.110502 L146.504604,425.596811 C146.504604,425.596811 116.272627,292.983646 90.4664701,253.160073" id="Fill-5" fill="#FABDC3"></path>
                    <path d="M90.4664701,253.160073 C88.0009618,249.355326 127.206784,177.092456 30.1473975,138 C30.1473975,138 40.5221856,222.14015 80.336511,256.949273 C80.336511,256.949273 135.086668,395.944159 129.441322,410.678675 C129.441322,410.678675 127.899277,421.173137 105.218785,380.068009 L76.1328426,323.325816 C76.1328426,323.325816 76.5141544,257.421137 0.0657614151,266.858 C0.0657614151,266.858 -1.13780639,272.830885 6.7529958,278.726036 C6.7529958,278.726036 9.43435674,313.788108 60.6745973,327.474271 C60.6745973,327.474271 160.603481,490.311535 161.947311,523 L172,510.110502 L146.504604,425.596811 C146.504604,425.596811 116.272627,292.983646 90.4664701,253.160073 Z" id="Stroke-7"></path>
                    <path d="M82.1362062,114.911728 C76.9372601,113.768228 53.9452859,108.27424 74.2856762,88.6572803 C74.2856762,88.6572803 110.482831,58.9024351 152.544445,71.8618173 C153.989736,72.7248831 171.558415,80.078104 148.38353,97.21804 C146.769558,98.6072329 102.293685,117.92911 82.1362062,114.911728 M91.531645,128.493087 C91.6547019,128.468392 91.7698062,128.452905 91.8949559,128.443697 C98.0913329,127.988725 170.517035,125.420036 180.904045,76.2474644 C180.904045,76.2474644 185.376369,55.4397077 133.25548,54.392895 C131.673738,54.3610846 130.396289,53.0836466 130.37578,51.5010801 C130.24477,41.2652527 129.754217,9.85250066 111.037425,0.324454201 C108.331009,-1.0534376 105.527906,2.25442355 107.3679,4.67117545 C107.406408,4.72140237 107.445753,4.77204784 107.486353,4.82311188 C107.631594,5.00518446 107.761766,5.19813954 107.861802,5.40909259 C109.473681,8.80150239 123.54612,38.8627317 123.008269,53.0396981 C122.97311,53.971826 122.46414,54.8202423 121.685198,55.333394 C119.219036,56.9569792 116.646142,58.5123394 113.509446,56.8619666 C112.666045,56.4182955 112.125683,55.558578 112.027321,54.6105449 C111.237497,47.0262802 108.381237,12.8623488 89.3279213,1.16742932 C88.7796064,0.830908964 88.1283255,0.710364359 87.4891828,0.782774834 C84.886152,1.07785798 80.7423981,1.1063199 84.6676632,9.26568283 C84.7149605,9.36404388 84.7668621,9.45696368 84.8246235,9.54946492 C89.0437184,16.3531196 107.314325,60.2104278 99.4671429,64.8727415 C96.3488635,66.8663316 92.2335718,72.4348227 87.1346617,62.2035994 C86.9777013,61.8884255 86.8860364,61.5477195 86.8504588,61.1973868 C86.3712064,56.4689409 79.0857337,23.5970969 67.1734877,14.6278249 C65.4234841,13.3097869 62.9062583,14.3469728 62.5308091,16.5054746 C61.9937953,19.5927559 62.9213265,25.5220436 69.0448739,36.8419354 C69.0771031,36.9022077 69.1093323,36.9570387 69.1457471,37.0152182 C71.3770958,40.5587274 87.0626692,68.4991251 80.1375775,70.9765678 C80.1375775,70.9765678 39.3379256,81.5141753 43.2665391,109.740448 C47.0574461,136.975995 88.6197161,129.080741 91.531645,128.493087" id="Fill-9" fill="#FABDC3"></path>
                    <path d="M82.1362062,114.911728 C76.9372601,113.768228 53.9452859,108.27424 74.2856762,88.6572803 C74.2856762,88.6572803 110.482831,58.9024351 152.544445,71.8618173 C153.989736,72.7248831 171.558415,80.078104 148.38353,97.21804 C146.769558,98.6072329 102.293685,117.92911 82.1362062,114.911728 Z M91.531645,128.493087 C91.6547019,128.468392 91.7698062,128.452905 91.8949559,128.443697 C98.0913329,127.988725 170.517035,125.420036 180.904045,76.2474644 C180.904045,76.2474644 185.376369,55.4397077 133.25548,54.392895 C131.673738,54.3610846 130.396289,53.0836466 130.37578,51.5010801 C130.24477,41.2652527 129.754217,9.85250066 111.037425,0.324454201 C108.331009,-1.0534376 105.527906,2.25442355 107.3679,4.67117545 C107.406408,4.72140237 107.445753,4.77204784 107.486353,4.82311188 C107.631594,5.00518446 107.761766,5.19813954 107.861802,5.40909259 C109.473681,8.80150239 123.54612,38.8627317 123.008269,53.0396981 C122.97311,53.971826 122.46414,54.8202423 121.685198,55.333394 C119.219036,56.9569792 116.646142,58.5123394 113.509446,56.8619666 C112.666045,56.4182955 112.125683,55.558578 112.027321,54.6105449 C111.237497,47.0262802 108.381237,12.8623488 89.3279213,1.16742932 C88.7796064,0.830908964 88.1283255,0.710364359 87.4891828,0.782774834 C84.886152,1.07785798 80.7423981,1.1063199 84.6676632,9.26568283 C84.7149605,9.36404388 84.7668621,9.45696368 84.8246235,9.54946492 C89.0437184,16.3531196 107.314325,60.2104278 99.4671429,64.8727415 C96.3488635,66.8663316 92.2335718,72.4348227 87.1346617,62.2035994 C86.9777013,61.8884255 86.8860364,61.5477195 86.8504588,61.1973868 C86.3712064,56.4689409 79.0857337,23.5970969 67.1734877,14.6278249 C65.4234841,13.3097869 62.9062583,14.3469728 62.5308091,16.5054746 C61.9937953,19.5927559 62.9213265,25.5220436 69.0448739,36.8419354 C69.0771031,36.9022077 69.1093323,36.9570387 69.1457471,37.0152182 C71.3770958,40.5587274 87.0626692,68.4991251 80.1375775,70.9765678 C80.1375775,70.9765678 39.3379256,81.5141753 43.2665391,109.740448 C47.0574461,136.975995 88.6197161,129.080741 91.531645,128.493087 Z" id="Stroke-11"></path>
                    <path d="M74.3066798,99.1813946 C75.2998508,97.4019952 76.6581583,95.8548534 78.238886,94.5594274 C85.2878967,88.7852805 109.897257,71.1846273 143.19269,75.7465636 C145.280019,76.032642 147.28347,76.8436805 148.859608,78.2310158 C151.16727,80.2625451 152.856078,83.6205509 147.069396,87.7974612 C145.728615,88.7649941 144.26181,89.5396001 142.734496,90.1796539 C135.256502,93.3120262 104.853366,105.568685 84.4374418,106.657108 C83.0553483,106.730387 68.6606275,109.296398 74.3066798,99.1813946" id="Fill-13" fill="#FABDC3"></path>
                    <path d="M74.3066798,99.1813946 C75.2998508,97.4019952 76.6581583,95.8548534 78.238886,94.5594274 C85.2878967,88.7852805 109.897257,71.1846273 143.19269,75.7465636 C145.280019,76.032642 147.28347,76.8436805 148.859608,78.2310158 C151.16727,80.2625451 152.856078,83.6205509 147.069396,87.7974612 C145.728615,88.7649941 144.26181,89.5396001 142.734496,90.1796539 C135.256502,93.3120262 104.853366,105.568685 84.4374418,106.657108 C83.0553483,106.730387 68.6606275,109.296398 74.3066798,99.1813946 Z" id="Stroke-15"></path>
                </g>
                <g id="Group-3" transform="translate(229.000000, 442.000000)">
                    <mask id="mask-2" fill="white">
                        <use xlink:href="#path-1"></use>
                    </mask>
                    <g id="Clip-2"></g>
                    <path d="M961.7713,123.860862 C969.394101,104.317846 940.002009,87.6546005 916.281775,91.0835983 C833.881887,102.999566 600.205439,147.29591 498.122936,63.6589658 C372.532376,-39.2376943 254.742472,-7.83416817 55.0456819,89.7172109 C28.4462254,102.711589 -1.62296285,123.561526 0.0682193411,152.599097 C1.6174296,179.187861 28.4197031,199.854054 52.430122,213.594767 C130.700343,258.386218 236.956977,268.745373 327.580317,253.250071 C398.336166,241.153032 464.62692,215.690117 529.043176,188.585534 C561.806711,174.799386 585.294485,171.131855 622.316398,174.71052 C658.939698,178.249764 694.626138,187.183065 731.467856,189.3312 C800.325025,193.345506 934.256826,194.396522 961.7713,123.860862" id="Fill-1" fill="#FC576F" mask="url(#mask-2)"></path>
                </g>
                <g id="Group-3" transform="translate(1008.000000, 442.000000)" fill="#FABDC3">
                    <path d="M70.6663338,1.13013313 L135.589718,34.896306 C135.589718,34.896306 147.762853,47.0521283 135.589718,71.3637727 C135.589718,71.3637727 109.890878,138.896119 67.9611928,147 C57.1406288,145.649353 -5.07761433,101.078005 0.332667686,60.5585974 C0.332667686,60.5585974 7.0955202,-9.67504219 70.6663338,1.13013313" id="Fill-1"></path>
                </g>
                <g id="Group-5-Copy-7" transform="translate(444.000000, 592.000000)" fill="#10093F">
                    <path d="M66.4481,7.1422 C66.4481,7.1422 -18.5519,36.1422 4.4481,122.1422 C4.4481,122.1422 16.4481,223.1422 109.4481,154.1422 C164.4481,120.1422 182.4481,82.1422 172.4481,62.1422 C169.4481,49.1422 135.4481,11.1422 135.4481,11.1422 C135.4481,11.1422 110.4481,-9.8578 66.4481,7.1422" id="Fill-1"></path>
                </g>
                <g id="Group-3-Copy-5" transform="translate(478.000000, 109.000000)" fill="#10093F">
                    <path d="M140.462784,61.2177182 C133.813677,61.2177182 128.423117,56.1707486 128.423117,49.94425 C128.423117,43.7169473 133.813677,38.6699777 140.462784,38.6699777 C147.111891,38.6699777 152.502451,43.7169473 152.502451,49.94425 C152.502451,56.1707486 147.111891,61.2177182 140.462784,61.2177182 M69.8605702,111.531429 C60.7048046,115.407714 51.0080567,118.020046 41.060081,118.909316 C38.3447347,119.152136 35.6197567,119.277567 32.896384,119.291236 C31.8015769,119.295256 30.6690456,119.274351 29.6793849,118.843384 C27.5210739,117.905068 26.9351434,114.5892 29.6111601,113.909785 C31.2630025,113.490075 33.7022391,113.70395 35.4375564,113.696714 C48.2581967,113.635606 60.9913487,109.244735 71.2940933,101.881321 C72.7589194,100.833655 74.1940478,99.7160372 75.850706,98.978731 C77.5651546,98.2156954 80.6384803,97.5017064 81.925922,99.2657738 C86.0322512,104.895674 73.584038,109.954704 69.8605702,111.531429 M451.526047,268.267292 C443.43539,260.706888 434.596669,253.989924 425.126267,248.258715 C319.621861,184.41861 269.548885,251.565738 266.477967,256.180937 C256.846233,266.633479 257.648878,259.397104 257.648878,259.397104 C329.084237,130.750437 270.49119,50.3462708 267.280612,44.7179791 C227.951032,-5.13260412 168.555341,-0.308354127 166.147407,0.495687539 C89.8961817,10.1441875 78.659159,73.6634791 78.659159,73.6634791 C77.3139269,79.0529704 56.2461146,90.6512714 49.4509264,94.270263 C48.3376585,94.8636457 47.2396408,95.4779335 46.1608867,96.1316194 C31.3344378,105.105528 3.12469496,106.629187 0,106.629187 C0.276109701,109.945859 2.6382924,113.452285 5.62011665,116.625837 C12.2957108,123.732762 21.3471326,128.129262 31.004551,129.403668 C94.8348532,137.826004 109.159649,109.845354 109.159649,109.845354 C167.752696,123.514062 194.239964,80.8998541 194.239964,80.8998541 C213.503432,84.9200624 216.714009,125.122146 216.714009,125.122146 C218.319298,168.540396 167.752696,246.532437 167.752696,246.532437 C142.068073,283.518354 129.225761,342.213395 146.081295,392.86802 C162.936829,443.522645 192.634675,450.75902 195.042609,451.563062 C195.942373,451.862969 197.400778,452.49977 198.876039,453.179186 C204.176703,455.622668 209.612211,457.771872 215.1633,459.571317 C286.28322,482.625604 329.084237,457.191354 329.084237,457.191354 C321.057792,431.46202 324.26837,415.381187 324.26837,415.381187 C236.780121,390.455895 244.003922,304.423437 244.003922,304.423437 C244.806566,294.774937 252.833011,297.187062 252.833011,301.20727 C252.833011,320.50427 256.846233,338.997229 258.451522,343.017437 C272.899123,397.69227 321.860436,408.144812 331.49217,409.752895 C354.917349,407.144584 367.792569,412.993183 371.827463,415.300783 C372.86769,415.89497 373.309145,417.17822 372.841203,418.282169 C369.568822,425.996949 346.742415,416.98927 346.742415,416.98927 C331.572435,413.190173 331.396655,422.945611 332.883956,429.6875 C333.590283,432.889194 334.358414,438.173356 334.651379,441.439373 C335.907517,455.463468 347.857288,463.876156 360.032602,468.451153 C373.591676,473.546365 388.312978,475.232441 402.686735,476.055779 C404.553686,476.163521 406.417427,476.328349 408.274746,476.550265 C432.248132,479.407025 457.939176,491.782834 472.426106,511.634623 C475.17998,515.40799 479.178754,520.631849 479.178754,525.534895 C479.178754,536.791479 483.191977,535.987437 483.191977,535.987437 C504.060733,503.021729 494.428999,462.819645 493.626355,456.387312 C487.205199,418.597354 460.717931,407.34077 456.704709,405.732687 C453.258956,391.924879 472.890837,398.27118 478.510151,400.341588 C479.430785,400.680893 480.320917,401.099799 481.162891,401.603933 C531.202156,431.5376 521.718912,487.744937 521.718912,487.744937 C521.718912,487.744937 523.939026,485.520958 526.757111,481.7098 C532.970382,473.305957 536.103906,463.054425 536.070195,452.597864 C536.066182,451.243857 536.148854,450.075585 536.29333,449.066513 C536.851971,445.178167 542.355704,443.419728 544.237905,446.866655 C553.824691,464.427729 557.035269,487.744937 557.035269,487.744937 C581.556058,399.449101 485.69382,300.190158 451.526047,268.267292" id="Fill-1"></path>
                </g>
                <g id="Group-3-Copy-6" transform="translate(239.000000, 477.000000) rotate(23.000000) translate(-239.000000, -477.000000) translate(77.000000, 248.000000)">
                    <mask id="mask-4" fill="white">
                        <use xlink:href="#path-3"></use>
                    </mask>
                    <g id="Clip-2"></g>
                    <path d="M323.820568,456.429117 C323.783848,456.089614 320.172857,422.350711 321.982254,412.39213 L322.008417,412.246957 L321.888158,412.162886 C321.079391,411.595977 318.799974,410.387275 315.350094,408.557914 C298.584943,399.668374 259.323509,378.850313 247.595936,358.024902 C246.358918,355.902898 241.79687,348.828938 234.891601,338.121982 C206.806934,294.575183 141.071021,192.649149 140.221862,176.246916 C140.443561,175.572046 142.924482,167.470391 139.515453,153.835629 C137.48298,145.705491 133.211023,138.2516 127.16088,132.279759 C124.809399,129.958372 122.057206,127.327344 119.143443,124.541496 C98.1205647,104.442408 66.3500886,74.0686668 73.658822,55.4406026 C73.6955423,55.274297 77.5557727,38.8256631 95.4133544,40.91459 L116.501871,48.7148736 L116.577607,48.7433569 L116.653801,48.7176301 C116.7837,48.6744458 119.862704,47.6095387 122.060878,43.6145292 C124.071778,39.9599408 125.667279,33.0467734 121.849277,20.8664966 L121.825867,20.8150429 C121.486204,20.2632942 121.094214,19.4864358 120.640258,18.5869155 C118.239663,13.8311268 113.770792,4.97834006 103.162273,1.55207729 C92.4853628,-1.89669645 78.1235616,1.00078803 60.4390248,10.1894018 C60.2774551,10.3189548 59.9956261,10.5068525 59.6380614,10.7439069 C57.4086751,12.2254968 51.4875132,16.1598645 47.5240068,24.5197068 C42.5653779,34.9785829 42.2514186,48.630802 46.59085,65.0973529 C49.9847315,77.9777671 49.7988345,85.7238406 46.0377492,88.1210301 C40.2680589,91.8004265 27.8065376,81.5046401 27.6812293,81.400814 L27.5931004,81.3273087 L27.4811032,81.353495 C27.3075994,81.3948417 10.049937,85.6439037 3.46230014,99.0319634 C-0.367635893,106.81433 0.0941229344,116.121012 4.83380648,126.693362 L4.9122963,126.868855 L5.09865225,126.821996 C5.5048715,126.720007 6.27599956,126.12048 7.55340991,125.126322 C12.3729603,121.375717 23.6608063,112.591382 35.7468616,116.256996 C54.0285638,120.323214 68.3357433,130.480259 78.2709022,146.446056 C79.0608494,149.236039 96.8504984,179.681448 127.910435,185.151615 C130.192148,189.177865 198.173972,309.035501 215.168165,331.749537 C217.266276,334.554221 219.014625,337.561504 220.364559,340.687314 C227.32812,356.810688 247.470169,387.377839 304.13018,410.937186 C306.151637,411.777902 307.659009,413.495168 308.162078,415.531263 C308.385155,416.433081 308.32732,417.024798 307.979853,417.392324 C307.395999,418.010687 305.867972,418.094299 303.476098,417.648214 C303.293874,417.580222 284.993811,410.700132 263.008858,395.385775 C242.724518,381.256232 215.066266,356.852494 198.49298,320.83401 C197.15085,317.864398 165.445552,248.166275 150.863429,254.211162 C149.970206,254.580985 149.386352,255.473614 149.375794,256.485689 C149.286748,265.01 149.997746,308.636735 172.813497,331.135309 C173.062737,334.540439 184.624609,370.457853 200.13025,376.878076 C200.82656,377.166584 201.531592,377.483575 202.285278,377.848345 C207.231513,380.240481 219.211539,385.621524 223.626706,383.944226 C224.29364,383.690633 224.771005,383.283138 225.047785,382.73139 C225.751898,382.819137 228.968145,383.521112 232.516711,389.04503 L232.58602,389.11486 C233.266724,389.548082 234.454629,390.381447 236.098784,391.53502 C246.635698,398.927809 274.595057,418.544059 299.992252,424.943609 C300.064775,425.295515 300.20064,426.329182 299.52269,427.080773 C298.689137,428.005102 296.869183,428.235265 294.28774,427.751968 C294.014633,427.662843 266.631783,418.652479 236.351237,406.279711 C208.418959,394.866185 172.242037,378.179578 158.518252,363.496448 L158.032625,362.976858 L160.430007,381.694047 L160.505743,381.752392 C160.665477,381.875513 176.760021,394.20326 201.621098,407.099294 C224.568584,419.002548 259.894511,433.840039 297.869355,436.928178 L298.0883,436.946095 L298.11584,436.727417 C298.119053,436.702609 298.450914,434.189189 300.073037,433.631927 C301.401856,433.176654 303.236957,434.108333 305.519588,436.392508 L323.897681,457.145333 L323.820568,456.429117 Z" id="Fill-1" fill="#861148" mask="url(#mask-4)"></path>
                </g>
                <g id="Group-12" transform="translate(731.400785, 26.000000)">
                    <g id="Group-3" transform="translate(0.400785, 0.500000)">
                        <mask id="mask-6" fill="white">
                            <use xlink:href="#path-5"></use>
                        </mask>
                        <g id="Clip-2"></g>
                        <path d="M87.3526505,184.209134 L87.3115972,184.254515 C85.1518961,187.130381 29.5648854,248.542454 9.11810249,255.111052 C9.09977509,255.115443 7.20765409,255.334299 6.2890847,254.147062 C5.53692811,253.173557 5.62123416,251.436619 6.53320569,249.119237 C8.12842278,247.949567 31.2773979,230.890536 54.220373,210.089 C85.8798605,181.386701 102.164124,159.548711 102.627441,145.173773 C103.167732,144.908804 104.804736,144.205392 105.897049,144.838536 C106.643341,145.272588 107.025284,146.280495 107.031882,147.835175 C106.78043,148.906031 101.483078,170.805505 87.3526505,184.209134 L87.3526505,184.209134 Z M403.055348,19.4327732 L411.451498,2.66579381 L410.958124,2.58747423 C398.642843,0.622896907 364.690964,-1.65715464 324.345754,3.7754433 C294.73527,7.76315464 265.956117,15.1625258 238.810302,25.7671443 C204.902409,39.0134021 173.460651,57.3262784 145.355213,80.1977938 C140.674394,81.2737732 104.28717,94.873567 68.846373,127.294948 C48.7214192,145.705175 32.7164655,166.697021 21.2750349,189.686381 C7.15780356,218.053443 -0.000146619217,249.545969 -0.000146619217,283.288536 L-0.000146619217,284 L0.579732384,283.587175 C11.4940669,275.802794 112.406209,193.005082 139.983085,151.699918 C143.741668,144.19368 156.692544,105.361804 156.161049,98.9330103 C156.289341,98.7485567 156.441825,98.5238454 156.619967,98.2618041 C172.495163,74.8910928 196.232814,59.2030206 213.350608,50.1582062 C261.56707,24.6801856 325.310508,14.3354124 402.812693,19.4166701 L403.055348,19.4327732 Z" id="Fill-1" fill="#861148" mask="url(#mask-6)"></path>
                    </g>
                    <path d="M394.863162,32.716046 C391.559548,36.2874384 390.077478,40.4674581 390.459568,45.1406631 C390.720418,48.3226218 392.702881,51.1692145 395.633222,52.5705915 C399.072772,54.213812 405.245004,56.5 412.949273,56.5 C421.021672,56.5 430.776004,53.9902346 440.830865,45.6031614 C441.167398,45.3218631 441.489971,45.0880567 441.816952,44.88786 C447.038367,41.6832513 453.655882,38.1893072 459.972869,35.3017984 C463.421971,33.724336 465.500691,30.405016 465.397085,26.6378107 C465.29495,22.9129828 463.065598,19.7492902 459.580491,18.3800616 L458.950041,18.1338343 C457.861818,17.7107909 456.744938,17.482099 455.559722,17.5010958 C447.757726,17.5186312 408.165058,18.3369536 394.863162,32.716046" id="Fill-4" fill="#861148"></path>
                    <path d="M426.643006,113.013188 C422.770498,110.192938 417.948184,108.849055 413.749883,109.417058 C411.497631,109.721554 409.399206,110.640899 407.842076,112.00674 C407.121559,112.639155 406.622348,113.450901 406.139827,114.235564 C405.568057,115.165156 405.027487,116.044243 404.159674,116.607853 C403.10901,117.28931 402.120748,117.313465 400.951812,116.682514 C394.728371,113.324272 393.716164,102.770842 397.943489,85.315011 C398.174954,84.3612644 399.410645,80.4350199 400.719621,76.2782073 C402.127278,71.8088469 403.722865,66.7422054 404.470229,64.1020182 L404.560929,63.7821508 L404.254002,63.6606451 C404.200307,63.6394182 383.937301,55.6090623 383.937301,55.6090623 L383.662299,55.5 L383.500491,55.750331 C374.804943,69.2316084 372.044049,85.8434876 373.997355,101.655332 C375.712665,115.540653 379.128773,131.564034 391.12651,140.237785 C395.054164,143.077066 399.526015,144.5 404.493448,144.5 C407.543856,144.5 410.781467,143.963472 414.193222,142.88822 C421.002219,140.743571 429.929958,131.968077 431.236032,123.870381 C431.944939,119.472021 430.357334,115.717056 426.643006,113.013188" id="Fill-6" fill="#861148"></path>
                    <path d="M462.876012,73.7621017 C470.705717,66.1212627 499.975779,46.3205576 502.580566,46.3205576 C503.120521,46.3205576 503.297339,46.0465221 503.355061,45.8828316 C503.493155,45.4896821 503.816835,44.568923 495.749667,38.0892635 C494.026781,36.7059326 491.95245,35.8801725 489.751716,35.7025975 C479.40271,34.868799 444.318821,34.9382213 427.447984,70.8675567 C425.895341,74.1749818 426.078005,78.0260933 427.937523,81.1705587 C429.792658,84.3069857 432.932285,86.236926 436.551953,86.4671157 C436.903398,86.4890386 437.257766,86.5 437.617248,86.5 C444.622043,86.5 453.156831,82.2732773 462.388664,74.2151737 C462.556715,74.0682907 462.716729,73.9170231 462.876012,73.7621017" id="Fill-8" fill="#861148"></path>
                    <path d="M516.626298,51.5549194 L516.518526,51.5 L516.399024,51.5215225 C516.275122,51.543045 503.819755,53.8051315 490.675966,60.178011 C478.511656,66.0751696 463.247617,76.8000424 459.609762,94.3994911 C458.966062,97.5157973 459.829705,100.764207 461.920629,103.089377 C464.54968,106.012723 466.964653,107.370865 469.750596,107.491836 C469.884762,107.497031 470.018927,107.5 470.155291,107.5 C475.358408,107.5 482.152445,103.223707 492.722901,93.321883 C494.891539,91.2906064 496.615891,88.956531 497.849038,86.3849661 C504.213453,73.110793 513.569091,63.206743 521.69085,61.1509754 C521.79349,61.1227735 524.212129,60.4340543 524.390283,58.610581 C524.586032,56.6067642 522.047158,54.2986641 516.626298,51.5549194" id="Fill-10" fill="#861148"></path>
                </g>
                <g id="Group-13-Copy-9" transform="translate(1184.000000, 515.000000)" fill="#10093F">
                    <path d="M30.3049469,156.479471 C30.3049469,156.479471 -4.69505306,168.479471 24.3049469,199.479471 C28.3049469,202.479471 67.3049469,231.479471 81.3049469,208.479471 C83.3049469,203.479471 81.3049469,170.479471 30.3049469,156.479471" id="Fill-1"></path>
                    <path d="M10.3048469,69.4795706 C5.83784694,69.6825706 -11.6951531,85.4795706 13.3048469,107.479571 C24.3048469,115.479571 52.3048469,142.479571 53.3048469,111.479571 C52.3048469,102.479571 54.3048469,67.4795706 10.3048469,69.4795706" id="Fill-5"></path>
                    <path d="M4.30484694,1.47957058 C4.30484694,1.47957058 -10.6951531,23.4795706 15.3048469,37.4795706 C20.3048469,42.4795706 45.3048469,49.4795706 39.3048469,27.4795706 C39.3048469,27.4795706 43.3048469,-7.52042942 4.30484694,1.47957058" id="Fill-9"></path>
                </g>
                <g id="Group-3" transform="translate(346.400785, 435.000000)">
                    <mask id="mask-8" fill="white">
                        <use xlink:href="#path-7"></use>
                    </mask>
                    <g id="Clip-2"></g>
                    <path d="M15.5520452,11.1972402 C23.7772754,2.48586858 35.1828518,-1.60034526 48.52789,0.576241776 C68.2678717,3.7955525 91.9938111,10.8699986 106.704607,25.1028541 C115.120358,33.2458587 116.548196,44.3993423 113.592622,55.37557 C110.599943,66.4867131 101.263696,72.9870512 90.6280533,75.9279195 C62.8997441,83.5965674 32.5319686,80.7454035 8.21948112,64.7155899 C5.90682639,63.1906155 3.61557852,61.5278551 1.97938065,59.2859633 C-1.09179059,55.0763162 0.0991445402,50.0787059 1.00750908,45.3408795 C2.40823146,38.0353549 4.16858914,30.7449007 7.21193145,23.9359795 C9.41683831,19.0043916 12.2239916,14.7222634 15.5520452,11.1972402" id="Fill-1" fill="#861148" mask="url(#mask-8)"></path>
                </g>
                <g id="Group-9" transform="translate(903.400785, 143.000000)">
                    <g id="Group-3">
                        <mask id="mask-10" fill="white">
                            <use xlink:href="#path-9"></use>
                        </mask>
                        <g id="Clip-2"></g>
                        <path d="M51.058918,63.4564571 L51.0451475,63.4660571 C46.186459,67.264 42.3619344,68.6985143 39.6789836,67.7330286 C36.8642951,66.7195429 36.134,63.3321143 35.8939344,62.2185143 C35.8705246,62.1101714 35.8517049,62.0237714 35.8360984,61.9634286 C35.0511803,35.6973714 58.0423934,19.2352 58.2599672,19.0816 C62.9446885,16.3168 66.5048197,15.6283429 68.8407541,17.0354286 C71.247377,18.4850286 72.366459,22.1723429 72.0786557,27.6845714 C70.5657377,40.1865143 51.8617377,62.9193143 51.058918,63.4564571 M27.1611475,45.9565714 C27.9726885,46.1901714 28.4450164,47.0144 28.2361639,47.8326857 C23.8580656,65.0176 26.0296721,72.8224 28.6226557,76.3433143 C30.8332787,79.3458286 33.473082,79.5286857 33.5837049,79.5346286 C34.2488197,79.5748571 34.9088852,79.5949714 35.5661967,79.5949714 C47.2302623,79.5949714 57.6246885,73.2845714 66.486459,60.8132571 C71.330918,53.9958857 75.4423279,45.7270857 78.7063934,36.2372571 C78.7876393,36.0013714 78.8519016,35.8148571 78.8991803,35.6822857 C78.9216721,35.6196571 78.945541,35.5634286 78.9758361,35.504 C79.729541,34.0173714 86.2434426,20.7067429 82.8200984,11.3124571 C81.5816721,7.91314286 79.1677049,5.42308571 75.6461311,3.91177143 C59.6875082,-2.93805714 46.7322295,19.1245714 46.6142623,19.3307429 C46.3898033,19.6489143 46.0620656,19.8180571 45.6122295,19.8468571 C41.4962295,20.112 30.2452787,8.99245714 28.7846885,7.39977143 C28.7530164,7.36548571 28.7227213,7.3344 28.6892131,7.30285714 C23.982918,2.80822857 20.2690164,0.401371429 17.6507869,0.149485714 C16.9383934,0.08 16.254459,0.379885714 15.8239016,0.949942857 C15.4016066,1.50902857 15.303377,2.22902857 15.5604262,2.8768 C18.8814098,11.2347429 36.9556393,20.9001143 39.8841639,22.0297143 C40.0654754,22.0996571 40.2256721,22.1961143 40.3592459,22.3154286 C42.0952459,23.8651429 42.9164262,25.1510857 42.8696066,26.2468571 C42.8195738,27.4208 41.7390492,28.2326857 40.7856721,28.9485714 C40.4758361,29.1812571 40.1834426,29.4006857 39.9277705,29.6306286 C39.576623,29.9670857 39.0280984,30.1257143 38.3056066,30.1060571 C31.793082,29.9195429 13.3117049,15.6050286 10.1008852,12.1526857 C10.0508525,12.0987429 9.99852459,12.0475429 9.94206557,11.9986286 C8.20101639,10.4868571 6.88180328,9.86742857 5.91006557,10.1037714 C4.93511475,10.3414857 4.53668853,11.3526857 4.2167541,12.1650286 L4.13504918,12.3707429 C3.96521312,12.7922286 3.93721312,13.2493714 4.05609836,13.6580571 C6.51091803,22.0978286 15.7320984,29.4550857 31.4630492,35.5245714 L31.9381311,35.7083429 C32.4228525,35.8966857 32.775377,36.2953143 32.8809508,36.7748571 C33.2991148,38.6729143 32.2057377,39.808 30.7327541,41.0944 C30.3522295,41.4267429 29.8440984,41.5588571 29.3736066,41.4486857 C21.0089508,39.4925714 5.64567213,26.4379429 3.92160656,24.9558857 C3.83714754,24.8832 3.75590164,24.7931429 3.67281967,24.6788571 L3.59983607,24.5819429 C2.94573771,23.7270857 1.92213115,23.6758857 1.19872131,24.0036571 C0.465672132,24.336 -0.176032786,25.1483429 0.043836066,26.2144 C2.65655738,38.9024 21.1002951,44.2116571 27.1611475,45.9565714" id="Fill-1" fill="#FABDC3" mask="url(#mask-10)"></path>
                    </g>
                    <path d="M64.5641982,21.231611 C63.3526695,21.5207286 62.1777136,22.0555733 61.0717366,22.8215293 C56.601071,25.9177819 41.8011632,37.6062614 39.0670065,58.026274 C38.8813654,59.4133988 39.0832096,60.7484551 39.6507809,61.8861989 C40.2243705,63.0367315 40.9942491,63.7264117 41.9386581,63.9346859 C42.1363358,63.9785331 42.3400319,64 42.5502092,64 C43.5700784,64 44.7376271,63.4875357 46.0297083,62.4708284 C46.7940315,61.8692995 47.5051159,61.1522149 48.2050897,60.2775543 C51.7688448,55.8215813 63.7054341,40.3750302 67.6608412,28.6865508 C67.6839885,28.6198665 67.7330608,28.5002001 67.7997249,28.3380568 C68.352482,26.9906684 69.8204824,23.4111829 68.395073,21.7815282 C67.6927845,20.9776626 66.4044069,20.7931389 64.5641982,21.231611" id="Fill-4" fill="#FABDC3"></path>
                    <g id="Group-8" transform="translate(60.000000, 1.000000)">
                        <mask id="mask-12" fill="white">
                            <use xlink:href="#path-11"></use>
                        </mask>
                        <g id="Clip-7"></g>
                        <path d="M500.808667,476.196523 L481.071832,456.325656 L480.952306,456.242004 C480.145394,455.677922 477.871202,454.475248 474.428773,452.655008 C457.70206,443.809799 418.531095,423.095551 406.829952,402.37399 C405.596228,400.262568 401.04418,393.223883 394.154743,382.57032 C366.140875,339.249819 300.576278,237.864058 299.702505,221.512533 C299.702047,221.506133 299.702505,221.501562 299.704795,221.495163 C299.941556,220.770633 302.385648,212.71852 298.997716,199.202948 C296.97036,191.113352 292.707739,183.696633 286.671467,177.754571 C284.324919,175.444303 281.578578,172.825481 278.671038,170.053525 C257.697731,150.05558 226.002382,119.835589 233.29207,101.298132 C233.338781,101.090144 237.204816,84.7797594 254.988026,86.8445559 C254.993521,86.845013 254.999017,86.8463844 255.004512,86.8482129 L276.036437,94.6068561 L276.111999,94.6347402 L276.188477,94.6091417 C276.318078,94.5661727 279.389565,93.506576 281.583157,89.5314884 C283.589447,85.8951244 285.180832,79.016888 281.372041,66.8968935 L281.348228,66.8456964 C281.009801,66.2966992 280.619167,65.5237147 280.165795,64.6291371 C277.770703,59.896607 273.31162,51.0884236 262.727422,47.6787895 C252.075906,44.248128 237.748405,47.1302494 220.098459,56.2766992 C219.936802,56.405149 219.656535,56.5907384 219.302996,56.8247822 C217.07872,58.2985267 211.171134,62.213732 207.216714,70.5323433 C202.270369,80.938607 201.956672,94.5227466 206.285697,110.906727 C206.801809,112.859987 207.234116,114.693482 207.58445,116.408127 C207.596815,116.470295 207.522626,116.511435 207.475915,116.468924 C178.672537,90.3044729 141.696997,50.97643 139.730091,48.8805495 C139.720474,48.8700359 139.71681,48.8581508 139.71681,48.843066 C139.819849,32.2625258 134.411889,22.4459428 129.85114,17.1278461 C125.308252,11.8303196 120.670567,9.81672016 119.877851,9.49948111 C119.863197,9.49353859 119.854496,9.48256779 119.849,9.46839717 C117.641211,3.96059699 113.994536,3.64427217 113.83929,3.63330137 L113.674885,3.62233057 L113.611688,3.77455046 C107.848814,17.7170696 107.35972,29.7086143 112.157688,39.4164036 C118.748998,52.7505003 133.32471,57.1872758 134.448983,57.5113716 C134.4586,57.5141143 134.465469,57.5186855 134.473254,57.5250851 L162.887373,83.5524008 C177.401261,97.6846234 178.070787,101.102943 177.684733,101.916611 C177.523992,102.255791 177.078862,102.210994 177.063292,102.208708 L177.037646,102.205508 L177.012459,102.208251 C167.812652,103.100086 97.6282305,50.6998744 95.310991,48.9660304 C95.3041218,48.9610021 95.3004581,48.9555167 95.2967945,48.9482028 C81.447396,20.4158871 34.2627214,0.716896259 33.7873667,0.520793157 L33.428332,0.373144434 L33.4727534,0.758493887 C39.6157278,54.2553287 75.6428484,54.3056116 87.4813777,54.3220678 C89.2367095,54.3248105 90.8949554,54.326639 91.1056135,54.5634255 C110.01905,75.7873579 182.097105,114.55909 182.884784,114.981008 L207.936157,130.717711 C207.962261,130.734624 207.974167,130.768451 207.963177,130.798164 C207.469962,132.174085 206.728537,133.183856 205.733864,133.816049 C205.494355,133.968269 205.238817,134.08849 204.977327,134.193627 C204.959466,134.200941 204.938859,134.200027 204.921456,134.191342 C204.921456,134.191342 112.408188,87.2093351 112.403609,87.2075067 L55.5085102,63.4845167 C55.5039307,63.4822311 55.501183,63.4808598 55.4975194,63.4776599 C54.8069271,62.9263771 42.5351748,53.1198506 34.4220888,46.2027594 C31.4664636,43.6826745 28.7581327,40.6163351 26.1423082,36.8286654 C25.7095431,36.2015012 25.2918905,35.8198087 25.1348128,35.6872448 C25.0739051,35.4824565 24.8595834,35.0180258 24.1442616,34.8146089 C23.4884737,34.6294766 22.7978814,34.7606691 22.2291044,35.1876161 C21.731768,35.5610806 21.4304353,36.1370477 21.3168631,36.7477557 C18.2366748,53.2848698 4.78981645,68.2161326 0.734189397,72.4056079 L0.699385009,72.4517767 C0.404921572,72.9710614 -0.0406661792,73.7554738 0.373780804,74.3574966 C0.709002011,74.8438689 1.66932834,75.4134364 6.1151309,74.7497028 C6.11971042,74.7492457 6.12428995,74.7487886 6.12886947,74.7492457 C6.4869883,74.7789583 6.90830457,74.8109565 7.3877808,74.8475258 C12.3982388,75.2287612 24.130981,76.1205961 34.4564353,79.8415267 C41.5418759,81.7262193 52.0775303,83.6534236 61.8319179,78.6959921 C61.8447406,78.6895924 61.8575633,78.6868497 61.8713018,78.6895924 C65.4662287,79.3076143 103.380114,95.1009994 141.7231,112.335674 C152.459337,117.161456 166.11548,123.399271 179.565544,129.81582 C179.615919,129.83959 179.616835,129.909071 179.566918,129.932842 C174.055002,132.540693 166.963608,137.158944 163.256025,144.672572 C159.435327,152.416588 159.89557,161.676403 164.624387,172.195574 L164.702697,172.370193 L164.889083,172.324024 C165.293913,172.223001 166.063273,171.626007 167.337755,170.636806 C172.146256,166.904904 183.406849,158.16346 195.46657,161.811709 C213.703611,165.856736 227.976157,175.960845 237.888997,191.842911 C237.892202,191.847939 237.894034,191.852053 237.895866,191.857539 C238.712395,194.678406 256.446604,224.906625 287.392284,230.357743 C287.409229,230.360943 287.422509,230.368714 287.43121,230.383342 C316.049576,280.594878 345.661699,330.093312 375.49547,379.618259 C382.381701,391.048922 389.325177,402.557751 398.241053,412.493642 C409.206267,424.712373 422.883018,434.232745 437.183957,442.315484 C445.329558,446.91865 453.720163,451.093498 462.339286,454.736718 C463.764892,455.338741 465.253696,455.967277 466.252948,457.147552 C467.2522,458.328285 467.568646,460.243604 466.518561,461.378625 C465.17218,462.835456 462.772967,462.134696 460.966803,461.311886 C447.003832,454.95202 433.621545,447.322741 421.039759,438.549299 C403.290895,426.171033 387.034498,411.390619 374.55621,393.72854 C357.165465,369.113258 347.597922,339.693222 330.349142,314.978746 C326.674989,309.714132 322.608371,304.627793 317.507239,300.723102 C316.317478,299.812525 315.009108,298.943089 313.519847,298.76847 C302.787731,297.509571 313.202944,336.673508 314.81631,341.996176 C320.013613,359.138513 328.147306,375.213025 336.839244,390.818078 C342.833842,401.580435 347.027313,415.995156 359.473545,421.133149 C360.171922,421.42159 360.875795,421.737457 361.623174,422.09858 C366.55807,424.47833 378.512461,429.831624 382.915674,428.164062 C383.566424,427.917676 384.035826,427.524556 384.314261,426.9943 C384.326167,426.971902 384.346317,426.959102 384.371505,426.962302 C385.144986,427.069725 433.738323,462.570786 459.0663,468.948936 C459.090571,468.954879 459.10889,468.971335 459.113927,468.996477 C459.186741,469.378169 459.291613,470.362799 458.637656,471.0855 C457.806931,472.004305 455.992065,472.233778 453.413335,471.752891 C453.073534,471.642269 425.784604,462.683237 395.611032,450.388166 C375.03248,442.001902 349.970115,430.755 332.752934,419.562039 C332.424124,418.891905 332.063258,418.18566 331.663923,417.434617 C319.884012,395.299194 277.261002,393.575406 277.261002,393.575406 C277.261002,393.575406 277.680029,403.702372 280.192814,410.453987 C285.782124,432.975217 312.341993,428.792141 321.010117,426.781284 C324.974612,429.699518 339.771514,440.242002 360.960517,451.203663 C376.634856,459.312 415.956944,470.237549 439.201696,476.32223 C451.259584,479.478622 462.540327,485.063675 472.359744,492.728609 L482.95768,501.000137 L482.880286,500.287492 C482.84365,499.95014 498.991512,486.162583 500.827444,476.255491 C500.831565,476.234007 500.824238,476.212065 500.808667,476.196523" id="Fill-6" fill="#FABDC3" mask="url(#mask-12)"></path>
                    </g>
                </g>
            </g>
        </g>
    </g>
</svg>