<svg version="1.1" id="jonesy-loader" class="jonesy-loader jonesy-loader--primary" xmlns="http://www.w3.org/2000/svg" x="0px" y="0px" width="729px" height="231px" viewBox="0 0 729 231" xmlns:xlink="http://www.w3.org/1999/xlink" xml:space="preserve" style="/* display: none; */">
<path class="jonesy-loader__path jonesy-loader__path--j" vector-effect="non-scaling-stroke" d="M121,1.2c3.1,0,4.7,1,4.7,3c0,1.6-0.9,2.7-2.8,3s-4,1.1-6.6,2.2c-2.6,1.3-4.5,2.7-5.8,4.1
  c-1.3,1.5-1.9,3.7-1.9,6.6V129c0,20.4-5,36-15,46.9s-24.2,16.4-42.8,16.4c-7.2,0-13.7-1.1-19.8-3.2s-11.3-5.1-15.7-8.9
  s-7.8-8.4-10.3-13.6c-2.5-5.2-3.7-11-3.7-17.2c0-5,0.8-9.4,2.3-13.3c1.6-3.9,3.7-7.4,6.5-10.3c2.8-2.9,5.9-5.2,9.5-6.7
  c3.6-1.6,7.4-2.3,11.4-2.3c7,0,12.5,1.6,16.5,5s6,7.3,6,12.1s-2.5,8.8-7.4,12.1c-4.2-4.4-8.9-6.6-14-6.6c-5.7,0-10.1,1.6-13.2,4.8
  c-3.1,3.2-4.7,7.7-4.7,13.6c0,7.9,3.1,14.5,9.2,19.8c6.1,5.3,14.2,8,24.1,8c11.7,0,20.1-3.9,25-11.8c5-7.9,7.4-20.2,7.4-36.8V20.1
  c0-2.8-0.6-4.9-1.9-6.5c-1.3-1.6-3.2-3-5.8-4.3c-2.6-1.1-4.8-1.8-6.6-2.2S63,5.9,63,4.2c0-2,1.5-3,4.4-3H121z"></path>
<path class="jonesy-loader__path jonesy-loader__path--o" vector-effect="non-scaling-stroke" d="M184.8,81.8c-8.1,0-14.6,2.9-19.5,8.7s-7.4,13.9-7.4,24.3c0,7,1,14.1,2.9,21.5c1.9,7.3,4.4,13.9,7.6,19.8
  c10.3,19.1,22.8,28.6,37.7,28.6c8.3,0,14.8-2.8,19.7-8.4c4.9-5.6,7.3-13.6,7.3-24.1c0-9.4-1.7-18.7-5.2-27.9
  c-3.5-9.3-8.5-18-15.1-26.3c-4.4-5.3-9.1-9.4-14-12.1C193.6,83.1,189,81.8,184.8,81.8z"></path>
<path class="jonesy-loader__path jonesy-loader__path--o" vector-effect="non-scaling-stroke" d="M195.2,74.3c8.3,0,16.1,1.8,23.5,5.4s14.1,8.8,19.9,15.5c5.3,6.4,9.4,13.2,12.4,20.5s4.4,14.5,4.4,21.9
  c0,7.7-1.5,14.9-4.5,21.6c-3,6.7-7.2,12.5-12.5,17.3c-5.3,4.9-11.6,8.7-19,11.5c-7.3,2.8-15.3,4.3-23.9,4.3
  c-8.8,0-16.8-1.5-23.9-4.5c-7.2-3-13.3-7.2-18.6-12.5c-5.2-5.3-9.3-11.6-12.1-19c-2.8-7.3-4.3-15.3-4.3-23.9
  c0-8.4,1.4-16.2,4.3-23.4c2.8-7.2,6.9-13.3,12.1-18.4c5.2-5.1,11.4-9.1,18.6-12C178.7,75.7,186.6,74.3,195.2,74.3z"></path>
<path class="jonesy-loader__path jonesy-loader__path--n" vector-effect="non-scaling-stroke" d="M380.6,170c0.4,3.1,1,5.4,1.8,6.9c0.8,1.5,2.8,2.9,5.9,4.4c2,0.9,3.6,1.6,4.7,2.1c1.1,0.5,1.7,1.3,1.7,2.6
  c0,2-1.3,3-3.9,3h-41.2c-2.9,0-4.4-0.9-4.4-2.8c0-1.1,0.7-2,2.1-2.6s2.8-1.4,4.4-2.3s3-2.2,4.4-3.7c1.4-1.6,2.1-3.8,2.1-6.7v-5.8
  l-6-56.7c-0.7-7-3-12.2-6.7-15.8c-3.8-3.6-8.7-5.4-14.7-5.4c-8.3,0-15,2.6-20.4,7.8c-5.3,5.2-8,12.1-8,20.8V170c0,3.1,0.8,5.5,2.3,7
  c1.6,1.6,3.2,2.8,4.9,3.9c1.7,1,3.4,1.8,5,2.5s2.3,1.5,2.3,2.6c0,2-1.3,3-3.9,3h-44c-2.8,0-4.1-0.9-4.1-2.8c0-1.5,0.8-2.5,2.5-3
  c1.7-0.5,3.7-1.4,6-2.5c2.4-1.3,4.2-2.7,5.5-4.1s1.9-3.7,1.9-6.6v-66.6c0-3.9-1.6-6.4-5-7.7c-2.9-1.1-5.4-1.8-7.3-2.1
  s-2.9-1.1-2.9-2.6c0-0.9,0.3-1.6,0.8-2.1s1.4-0.9,2.5-1.2l29.2-12.6c0.4-0.2,0.7-0.4,1-0.5c0.3-0.2,0.6-0.3,1-0.3
  c1.5,0,2.2,1.2,2.2,3.6l-0.3,16l1.1,0.3c6.4-6.6,13.2-11.5,20.2-14.9c7.1-3.3,14-4.9,20.8-4.9c8.1,0,14.7,2.4,19.8,7.1
  c5.1,4.8,8.2,11.7,9.1,20.9L380.6,170z"></path>
<path class="jonesy-loader__path jonesy-loader__path--e" vector-effect="non-scaling-stroke" d="M477.3,117.8c2.2-0.4,3.3-1.4,3.3-3c0-4.4-0.8-8.7-2.3-12.8c-1.6-4.1-3.7-7.8-6.3-11c-2.7-3.2-5.7-5.8-9.2-7.7
  c-3.5-1.9-7.2-2.9-11-2.9c-7.9,0-14.4,3.2-19.7,9.6s-7.8,14.9-7.8,25.6c0,3.1,0.2,5.4,0.7,6.7c0.5,1.4,1.6,2.1,3.4,2.1h1.4
  L477.3,117.8z"></path>
<path class="jonesy-loader__path jonesy-loader__path--e" vector-effect="non-scaling-stroke" d="M431.1,131.8c-2,0.4-3.4,0.8-4.1,1.4c-0.7,0.6-1.1,1.6-1.1,3c0,2,0.4,4.8,1.1,8.2c0.7,3.5,2.1,7.3,4.1,11.5
  c3.7,8.4,8.6,14.8,14.8,19.2c6.2,4.4,13.5,6.6,21.7,6.6c7.7,0,14.7-2.1,20.9-6.3c2.2-1.7,4.1-3.3,5.6-5s3-3.2,4.3-4.7
  c1.3-1.5,2.3-2.7,3.2-3.6s1.7-1.4,2.6-1.4c2,0,3,0.8,3,2.5c0,0.9-0.5,2.3-1.7,4.3c-1.1,1.9-2.9,4.2-5.5,6.7
  c-5.9,5.9-11.8,10.3-17.9,13.3c-6,3-12.9,4.5-20.6,4.5c-9.2,0-17.5-1.5-25-4.5c-7.5-3-14-7.2-19.4-12.5c-5.4-5.3-9.6-11.7-12.7-19.2
  c-3-7.5-4.5-15.8-4.5-24.8c0-8.6,1.3-16.4,4-23.4S410.4,95,415.2,90c4.8-5,10.4-8.8,17-11.5c6.6-2.8,13.8-4.1,21.7-4.1
  c13.8,0,25.6,4.1,35.5,12.4c5.9,5,10.3,10.2,13.3,15.8c3,5.6,4.5,10.8,4.5,15.5c0,2.4-1.2,3.7-3.6,3.9L431.1,131.8z"></path>
<path class="jonesy-loader__path jonesy-loader__path--s" vector-effect="non-scaling-stroke" d="M599.7,99.1c0.5,1.1,0.8,2,0.8,2.8c0,1.6-1,2.5-3,2.5c-1.7,0-3.8-1.5-6.3-4.4c-2.6-2.9-6.5-6.2-11.8-9.9
  c-9.5-6.4-18.4-9.6-26.7-9.6c-4.6,0-8.2,1.1-10.9,3.4s-4,5.2-4,8.7c0,3.5,1.4,6.6,4.1,9.2s7,5.3,12.6,7.8c9,4.2,16.9,8,23.8,11.4
  c6.9,3.4,12.7,6.9,17.5,10.6c4.8,3.7,8.4,7.7,10.9,12.1c2.5,4.4,3.7,9.6,3.7,15.7c0,9.9-3.4,17.9-10.2,23.9
  c-6.8,6.1-15.9,9.1-27.5,9.1c-7.3,0-13.3-0.9-18-2.8c-4.7-1.8-8.1-2.8-10.3-2.8c-1.5,0-2.8,0.5-4.1,1.4s-2.4,1.4-3.3,1.4
  c-0.5,0-1.3-0.6-2.2-1.9l-19.8-33c-0.7-1.3-1.1-2.3-1.1-3s0.3-1.4,1-1.9c0.6-0.5,1.4-0.8,2.3-0.8c2,0,3.8,1.1,5.4,3.4s3.6,5,6.2,8.1
  c6.4,8.1,12.5,14.2,18.2,18.4c5.7,4.2,12.6,6.3,20.6,6.3c7.5,0,13.3-1.8,17.3-5.5c4-3.7,6.1-8.7,6.1-15.1c0-5.9-1.7-10.5-5-13.9
  c-3.3-3.4-8.4-6.9-15.4-10.6c-8.4-4.6-15.8-8.2-22.1-10.7c-6.3-2.6-11.1-5.1-14.4-7.7c-4.6-3.3-8-6.6-10.2-10s-3.3-7.3-3.3-11.7
  c0-7.2,2.8-13.2,8.5-18c5.7-4.9,13.3-7.3,22.8-7.3c5.9,0,10.9,0.5,15,1.4c4.1,0.9,7.6,1.4,10.3,1.4c2,0,3.7-0.4,5.1-1.1
  s2.2-1.1,2.6-1.1c1.3,0,2.1,0.4,2.5,1.1L599.7,99.1z"></path>
<path class="jonesy-loader__path jonesy-loader__path--y" vector-effect="non-scaling-stroke" d="M703.6,99.6c0.4-1.1,0.7-2.4,1.1-3.9c0.4-1.5,0.5-3,0.5-4.7c0-2-0.6-3.5-1.9-4.5c-1.3-1-2.7-1.9-4.1-2.6
  s-2.8-1.4-4.1-1.9c-1.3-0.5-1.9-1.3-1.9-2.2c0-1.5,1-2.2,3-2.2h29.2c2,0,3,0.7,3,2.2s-0.9,2.4-2.6,2.8s-3.6,1.2-5.6,2.5
  c-3.8,2.6-7.4,7.9-10.7,16L669,198.9c-4.4,10.8-9.2,18.7-14.3,23.8s-12.4,7.6-21.7,7.6c-7,0-12-0.7-15-2.2c-3-1.5-4.7-4.3-5.1-8.5
  l-1.4-18.7v-1.1c0-2,0.7-3,2.2-3c0.9,0,1.9,0.7,2.9,2.2c1,1.5,2.4,3.4,4.3,5.8c5,6.2,11.9,9.4,20.9,9.4c11.4,0,19.2-8,23.6-23.9
  l-42.6-96.8c-1.5-3.1-3.1-5.4-4.9-6.7c-1.8-1.4-3.6-2.4-5.2-3s-3-1.1-4.1-1.5c-1.1-0.4-1.6-1.1-1.6-2.2c0-1.5,1-2.2,3-2.2h43.5
  c1.8,0,2.8,0.7,2.8,2.2s-0.6,2.3-1.9,2.6s-2.9,0.9-5,1.8c-3.3,1.5-5,3.6-5,6.3c0,0.4,0.2,1.1,0.5,2.2l30.8,71.5h1.4L703.6,99.6z"></path>
</svg>
