<svg width="36px" height="39px" viewBox="0 0 36 39" version="1.1" xmlns="http://www.w3.org/2000/svg" xmlns:xlink="http://www.w3.org/1999/xlink">
    <defs>
        <polygon id="labud_logo_path-1" points="0 0 36 0 36 39 0 39"></polygon>
    </defs>
    <g id="labud_logo_Symbols" stroke="none" stroke-width="1" fill="none" fill-rule="evenodd">
        <g id="labud_logo_nav/black" transform="translate(0.000000, -3.000000)">
            <g id="labud_logo_Group-4">
                <g id="labud_logo_Page-1-Copy" transform="translate(0.000000, 3.000000)">
                    <mask id="labud_logo_mask-2" fill="white">
                        <use xlink:href="#labud_logo_path-1"></use>
                    </mask>
                    <g id="labud_logo_Clip-2"></g>
                    <path d="M32.9259206,7.6423105 C32.9411079,7.43660127 32.970463,7.23225787 33.014031,7.03169326 C33.1552894,6.38136072 33.430445,5.70733861 33.2267732,5.07418517 C33.0749151,4.60204796 32.6836734,4.25508152 32.2999128,3.94579682 C31.5368145,3.33080893 30.7358304,2.76597737 29.9393889,2.19595565 C29.1154514,1.60623562 28.2897298,1.00690926 27.3744436,0.576839623 C26.0023389,-0.0678778406 24.3499812,-0.292769399 23.0053275,0.53956763 C21.8682587,1.2433952 21.167064,2.48080716 20.6187019,3.67082482 C20.5902763,3.73248447 20.5622405,3.79429588 20.5344745,3.85625905 C19.2319645,6.76241222 19.6195182,10.0531225 21.2133306,12.7581344 C21.9887227,14.0741575 23.1037676,15.1930154 24.2919006,16.1315381 C25.4210085,17.023395 26.6526494,17.7899901 27.6885345,18.7985344 C28.4280198,19.5185091 29.1068908,20.4431307 29.6625992,21.3154107 C30.2627601,22.2574846 30.5919033,23.4135993 30.6146618,24.5328063 C30.6250515,25.0440214 30.4437334,25.4871271 29.8887146,25.571414 C29.1164259,25.6886933 28.2485307,25.0304542 27.6594342,24.5989732 C27.0034716,24.1185044 26.4038205,23.566026 25.7912009,23.0317283 C23.7667017,21.2660284 21.877614,19.330328 19.7517062,17.6860352 C17.1269712,15.6559105 14.1620286,13.9931941 10.9814802,13.0538518 C9.59265893,12.6436778 8.16125924,12.40056 6.7268011,12.2249901 C5.91634178,12.1258005 5.06688721,11.9715223 4.2500711,11.9806886 C3.37415494,11.9904922 2.52179184,12.2437627 1.6884691,12.4929053 C1.28349431,12.6139786 0.811998223,12.6263773 0.428792399,12.8412983 C-0.128895013,13.1540886 -0.0759268524,13.738664 0.210368078,14.2458879 C0.460861149,14.6896765 0.791413653,15.0561895 0.948054281,15.5547783 C1.08637419,15.995031 1.15905736,16.497004 1.14757318,16.9591858 C1.12776822,17.7557836 0.855251306,18.5356879 0.789704519,19.3333025 C0.769539737,19.5786663 0.749285,19.8080196 0.799554528,20.0528978 C0.870888382,20.4003044 0.990107972,20.8187796 1.15530926,21.1286258 C1.43137937,21.6464425 1.84918766,22.092811 2.20713129,22.5496509 C2.53182176,22.9640135 2.78244977,23.3584653 2.9874259,23.8430923 C3.24938816,24.4623901 3.42358489,25.1063033 3.63580236,25.7416724 C3.70599679,25.9517826 3.81449681,26.1440308 3.88053835,26.3551427 C3.92947355,26.5116213 3.95870874,26.6723189 3.99719424,26.8317113 C4.09497469,27.2367103 4.2117805,27.6379761 4.34333884,28.0329742 C4.57461165,28.7274231 4.82939255,29.4015666 5.19192385,30.038256 C5.7238693,30.9724688 6.32515462,31.8852078 6.95390603,32.7560157 C7.44546195,33.4368062 8.04191971,34.029865 8.60803285,34.6459607 C9.06378692,35.1419544 9.58378343,35.5875642 10.1361036,35.9723489 C10.3617992,36.1296015 10.6078095,36.2466835 10.8563986,36.3609732 C11.0030243,36.4283693 11.1481657,36.4696781 11.2894841,36.5509298 C11.617323,36.7394296 11.92906,36.9560351 12.2584431,37.1429566 C12.7523829,37.4232705 13.2661725,37.5685645 13.8055092,37.7238594 C14.4700175,37.9152123 15.1334014,38.078945 15.8056307,38.2388078 C16.4331228,38.3880324 16.9847982,38.6881357 17.5906262,38.8908553 C17.7286163,38.9370203 17.8651971,38.9587219 18.0123925,38.9671596 C18.5137085,38.9959331 19.006074,39.0297299 19.505321,38.9531523 C19.9935337,38.8782744 20.3857499,38.5892496 20.8390302,38.4097187 C22.8015358,37.6324702 24.863366,38.0319301 26.8869507,37.7104288 C27.4173669,37.6261419 27.9839898,37.4787839 28.4064157,37.1262328 C28.6729657,36.9037542 28.9628887,36.6987279 29.252572,36.5083008 C29.4606365,36.3715356 29.6231542,36.1850239 29.8348469,36.0553307 C30.2978873,35.7716477 30.7591436,35.4876612 31.1844181,35.1465982 C32.4239,34.1525924 33.7534713,33.6380082 34.6922506,32.2623742 C36.9970627,28.8851158 35.913082,23.8696653 34.0734691,20.5554172 C33.1572984,18.9048263 31.9787306,17.4038243 30.6087398,16.1282298 C29.2281943,14.8428316 27.7924768,13.7579677 26.302202,12.5992883 C25.3227932,11.8378075 24.4011802,10.9016522 23.839145,9.77485734 C23.4811264,9.05711348 23.2717875,8.26907488 23.1698092,7.47379738 C23.0883705,6.83871661 22.9942631,6.13218773 23.1062264,5.4965151 C23.1876052,5.03445468 23.4201523,4.57784241 23.8181107,4.33695546 C24.2881825,4.05240747 24.8839506,4.11805838 25.4167206,4.24670443 C25.8143192,4.3427223 26.211243,4.47173257 26.5490819,4.70466735 C27.7039467,5.50094646 27.8994626,7.28837832 29.1036374,8.00592489 C29.3681934,8.16357207 29.6680864,8.25874009 29.9174101,8.44006166 C30.3123999,8.72734132 30.5329382,9.19216375 30.8001178,9.60355186 C31.4703382,10.6355581 32.5250238,11.4049152 33.7042062,11.7220155 C33.9745493,11.7947232 34.3486547,11.7911872 34.4356856,11.5220883 C34.5120419,11.2859665 34.290874,11.0704233 34.1094959,10.903018 C33.2331,10.0941278 32.8371656,8.84498484 32.9259206,7.6423105" id="labud_logo_Fill-1" fill="#000000" mask="url(#labud_logo_mask-2)"></path>
                </g>
            </g>
        </g>
    </g>
</svg>
